<?xml version="1.0" encoding="UTF-8"?>
<svg xmlns="http://www.w3.org/2000/svg" xmlns:xlink="http://www.w3.org/1999/xlink" version="1.1" width="6877px" height="2745px" style="shape-rendering:geometricPrecision; text-rendering:geometricPrecision; image-rendering:optimizeQuality; fill-rule:evenodd; clip-rule:evenodd">
  <g>
    <path style="opacity:0.999" fill="#000000" d="M 5142.5,-0.5 C 5151.83,-0.5 5161.17,-0.5 5170.5,-0.5C 5262.47,34.1074 5353.8,70.6074 5444.5,109C 5497.13,132.48 5548.13,158.814 5597.5,188C 5707.38,245.722 5824.38,278.055 5948.5,285C 5989.15,286.904 6029.81,288.238 6070.5,289C 6187,295.159 6281.16,343.659 6353,434.5C 6359.91,443.322 6366.58,452.322 6373,461.5C 6383.17,477.844 6393.84,493.844 6405,509.5C 6425.37,531.087 6448.54,548.92 6474.5,563C 6529.52,591.844 6584.85,620.177 6640.5,648C 6708.42,678.527 6776.42,708.861 6844.5,739C 6859.59,746.585 6870.26,758.085 6876.5,773.5C 6876.5,779.833 6876.5,786.167 6876.5,792.5C 6870.53,809.427 6861.7,824.761 6850,838.5C 6826.12,869.389 6797.62,894.889 6764.5,915C 6718.37,940.188 6669.37,948.188 6617.5,939C 6489.42,920.893 6361.42,902.226 6233.5,883C 6203.23,878.915 6172.9,878.082 6142.5,880.5C 6163.94,898.067 6187.27,912.9 6212.5,925C 6227.38,931.941 6242.38,938.608 6257.5,945C 6293.91,958.804 6330.25,972.804 6366.5,987C 6406.78,1002.63 6443.78,1023.63 6477.5,1050C 6508.22,1076.73 6530.22,1109.4 6543.5,1148C 6520.86,1160.99 6498.2,1173.99 6475.5,1187C 6458.32,1197.09 6439.99,1204.09 6420.5,1208C 6370.75,1216.38 6320.75,1218.71 6270.5,1215C 6247.95,1212.42 6225.95,1207.42 6204.5,1200C 6167.21,1187.57 6130.54,1173.57 6094.5,1158C 6048.28,1137.06 6001.95,1116.39 5955.5,1096C 5928.77,1083.76 5902.77,1085.09 5877.5,1100C 5804.89,1149.02 5752.05,1214.19 5719,1295.5C 5708.74,1320.95 5700.07,1346.95 5693,1373.5C 5668.01,1488.8 5634.34,1601.46 5592,1711.5C 5576.55,1740.29 5555.38,1764.13 5528.5,1783C 5509.27,1793.9 5491.44,1806.73 5475,1821.5C 5470.55,1826.63 5466.88,1832.29 5464,1838.5C 5461.14,1849.39 5463.47,1859.06 5471,1867.5C 5475.53,1872.37 5480.37,1876.87 5485.5,1881C 5611.19,1955.64 5722.52,2048.3 5819.5,2159C 5833.83,2170.16 5849.83,2178.16 5867.5,2183C 5884.92,2188.1 5902.58,2192.1 5920.5,2195C 5961.56,2201.68 6002.56,2208.68 6043.5,2216C 6082.09,2219.93 6120.59,2224.1 6159,2228.5C 6162.11,2238.5 6165.61,2248.33 6169.5,2258C 6137.29,2294.54 6105.46,2331.37 6074,2368.5C 6060.83,2381.67 6047.67,2394.83 6034.5,2408C 6022.08,2419.09 6009.08,2429.43 5995.5,2439C 5965.71,2456.74 5933.71,2462.41 5899.5,2456C 5871.65,2450.94 5844.98,2442.27 5819.5,2430C 5742.69,2390.76 5666.36,2350.76 5590.5,2310C 5513.83,2268.67 5437.17,2227.33 5360.5,2186C 5338.37,2173.37 5316.37,2160.53 5294.5,2147.5C 5289.63,2150.86 5284.63,2154.03 5279.5,2157C 5275.84,2211.98 5259.34,2262.81 5230,2309.5C 5218.11,2328.05 5205.44,2346.05 5192,2363.5C 5156.62,2405.21 5121.62,2447.21 5087,2489.5C 5069.22,2513.95 5052.22,2538.95 5036,2564.5C 5016.5,2585.33 4993.66,2601.5 4967.5,2613C 4948.08,2622.88 4927.74,2630.21 4906.5,2635C 4897.08,2637.16 4888.74,2635.16 4881.5,2629C 4854.31,2608.49 4832.15,2583.65 4815,2554.5C 4788.99,2496.48 4792.32,2440.15 4825,2385.5C 4843.25,2357.24 4865.75,2332.74 4892.5,2312C 4906.77,2297.31 4917.94,2280.48 4926,2261.5C 4935.28,2238.93 4945.12,2216.6 4955.5,2194.5C 4922.04,2145.92 4886.87,2098.58 4850,2052.5C 4835.9,2035.53 4817.73,2026.03 4795.5,2024C 4790.17,2023.33 4784.83,2023.33 4779.5,2024C 4576.43,2072.34 4372.1,2078.34 4166.5,2042C 4101.33,2030.57 4037,2015.57 3973.5,1997C 3929.11,1983.2 3884.77,1969.2 3840.5,1955C 3782.98,1938.45 3724.98,1923.79 3666.5,1911C 3605.17,1897.67 3543.83,1884.33 3482.5,1871C 3432.79,1860.47 3382.79,1858.8 3332.5,1866C 3278.34,1870.7 3227.68,1859.7 3180.5,1833C 3169.1,1825.27 3157.43,1817.94 3145.5,1811C 3125.2,1803.5 3104.2,1799.67 3082.5,1799.5C 3065.39,1800.35 3048.39,1802.18 3031.5,1805C 2982.02,1814.87 2932.68,1825.37 2883.5,1836.5C 2852.54,1939.55 2862.37,2038.55 2913,2133.5C 2965.17,2225.92 3035.67,2301.42 3124.5,2360C 3227.99,2423.03 3339.33,2442.7 3458.5,2419C 3481.87,2414.57 3504.87,2408.74 3527.5,2401.5C 3527.83,2402.33 3528.17,2403.17 3528.5,2404C 3524.17,2425.8 3520.01,2447.64 3516,2469.5C 3511.57,2498.89 3503.57,2527.22 3492,2554.5C 3472.97,2587.52 3445.81,2611.35 3410.5,2626C 3344.22,2650.58 3279.22,2647.58 3215.5,2617C 3178.33,2593.91 3140.66,2571.58 3102.5,2550C 3055.35,2523.59 3006.35,2501.26 2955.5,2483C 2923.44,2473.54 2891.44,2463.87 2859.5,2454C 2811.37,2438.1 2766.37,2416.1 2724.5,2388C 2663.04,2343.95 2619.87,2286.11 2595,2214.5C 2592.59,2209.34 2589.92,2204.34 2587,2199.5C 2561.87,2171.37 2536.37,2143.53 2510.5,2116C 2496.49,2102.67 2480.83,2091.67 2463.5,2083C 2449.76,2076.94 2435.43,2074.94 2420.5,2077C 2404.76,2079.43 2389.43,2083.43 2374.5,2089C 2310.25,2115.29 2246.58,2142.96 2183.5,2172C 2127.5,2198.67 2071.5,2225.33 2015.5,2252C 1988.49,2269.81 1972.99,2294.97 1969,2327.5C 1965.67,2361.87 1971.01,2394.87 1985,2426.5C 2006.02,2476.39 2039.52,2515.56 2085.5,2544C 2097.52,2550.89 2110.18,2556.23 2123.5,2560C 2178.23,2571.13 2230.23,2589.8 2279.5,2616C 2299.87,2628.37 2315.37,2645.2 2326,2666.5C 2328.76,2671.87 2329.76,2677.54 2329,2683.5C 2319.36,2698.14 2306.86,2709.64 2291.5,2718C 2270.98,2729.73 2248.98,2737.06 2225.5,2740C 2212.05,2741.78 2198.71,2743.28 2185.5,2744.5C 2143.83,2744.5 2102.17,2744.5 2060.5,2744.5C 2026.23,2742.28 1992.9,2735.11 1960.5,2723C 1908.36,2700.19 1870.86,2662.69 1848,2610.5C 1833.69,2572.55 1815.69,2536.55 1794,2502.5C 1783.39,2486.23 1772.39,2470.23 1761,2454.5C 1730.28,2414.78 1699.95,2374.78 1670,2334.5C 1657.61,2317.06 1647.28,2298.39 1639,2278.5C 1627.59,2247.09 1630.92,2217.42 1649,2189.5C 1659.1,2176.98 1669.43,2164.65 1680,2152.5C 1685.11,2140.31 1686.77,2127.65 1685,2114.5C 1667.43,2080.36 1650.1,2046.03 1633,2011.5C 1604.83,1952.99 1585.5,1891.65 1575,1827.5C 1560.9,1728.08 1578.07,1634.41 1626.5,1546.5C 1616.3,1540.89 1605.63,1536.72 1594.5,1534C 1571.11,1551.72 1547.45,1569.05 1523.5,1586C 1510.4,1596.43 1497.9,1607.59 1486,1619.5C 1437.77,1679.41 1386.94,1737.24 1333.5,1793C 1281.12,1845.07 1222.78,1889.07 1158.5,1925C 1122.78,1944.03 1085.78,1960.03 1047.5,1973C 1030.41,1978.27 1013.07,1982.61 995.5,1986C 920.837,2000.31 845.503,2008.15 769.5,2009.5C 676.079,2010.1 586.079,1992.93 499.5,1958C 404.082,1924.29 312.748,1881.95 225.5,1831C 206.946,1820.45 190.779,1806.95 177,1790.5C 167.93,1779.36 159.597,1767.69 152,1755.5C 131.413,1718.66 111.079,1681.66 91,1644.5C 55.4701,1572.06 32.8034,1495.73 23,1415.5C 17.0131,1368.67 13.0131,1321.67 11,1274.5C 8.87962,1220.82 6.54629,1167.16 4,1113.5C 3.08842,1093.97 1.58842,1074.63 -0.5,1055.5C -0.5,1051.5 -0.5,1047.5 -0.5,1043.5C 82.9783,1068.5 147.812,1117.83 194,1191.5C 208.442,1215.05 220.776,1239.72 231,1265.5C 244.608,1301.66 258.608,1337.66 273,1373.5C 321.98,1476.81 398.48,1552.31 502.5,1600C 617.753,1649.49 736.419,1659.49 858.5,1630C 917.124,1614.69 973.124,1592.69 1026.5,1564C 1075.48,1537.32 1123.14,1508.65 1169.5,1478C 1217.34,1446.25 1265.01,1414.25 1312.5,1382C 1444.34,1289.91 1576.01,1197.58 1707.5,1105C 1741.64,1083.54 1776.31,1062.87 1811.5,1043C 1835.68,1026.49 1859.02,1008.82 1881.5,990C 1992.21,907.484 2114.54,847.484 2248.5,810C 2358.24,779.519 2469.91,759.852 2583.5,751C 2820.52,733.07 3057.19,737.07 3293.5,763C 3388.84,773.143 3483.84,785.81 3578.5,801C 3671.29,814.346 3764.29,816.013 3857.5,806C 3900.49,799.558 3943.49,793.224 3986.5,787C 4039.54,781.824 4092.7,779.324 4146,779.5C 4207.17,780.341 4268.34,781.508 4329.5,783C 4389.5,783.328 4449.5,783.828 4509.5,784.5C 4636.78,788.797 4749.12,750.631 4846.5,670C 4864.43,654.736 4881.77,638.736 4898.5,622C 4910.15,613.174 4922.15,604.84 4934.5,597C 5006.18,557.492 5078.18,518.492 5150.5,480C 5122.71,432.252 5094.54,384.752 5066,337.5C 5040.32,293.82 5016.99,248.82 4996,202.5C 4990.38,188.962 4986.38,174.962 4984,160.5C 4979.59,137.37 4986.43,118.537 5004.5,104C 5015.94,96.4502 5028.27,90.7835 5041.5,87C 5058.6,82.0795 5075.94,78.2462 5093.5,75.5C 5092.9,60.8117 5091.9,46.145 5090.5,31.5C 5090.3,26.3236 5091.14,21.3236 5093,16.5C 5099.02,12.4046 5105.52,9.23791 5112.5,7C 5122.47,3.83988 5132.47,1.33988 5142.5,-0.5 Z"></path>
  </g>
</svg>
