<?xml version="1.0" standalone="no"?>
<!DOCTYPE svg PUBLIC "-//W3C//DTD SVG 20010904//EN"
 "http://www.w3.org/TR/2001/REC-SVG-20010904/DTD/svg10.dtd">
<svg version="1.0" xmlns="http://www.w3.org/2000/svg"
 width="960.000000pt" height="960.000000pt" viewBox="0 0 960.000000 960.000000"
 preserveAspectRatio="xMidYMid meet">

<g transform="translate(0.000000,960.000000) scale(0.100000,-0.100000)"
fill="#000000" stroke="none">
<path d="M0 9568 c0 -25 3 -29 10 -18 13 20 13 50 0 50 -5 0 -10 -15 -10 -32z"/>
<path d="M50 9558 c-19 -74 -32 -113 -41 -122 -10 -11 -13 -1203 -3 -1193 4 3
33 71 64 149 47 114 63 144 79 146 12 2 21 -2 21 -8 0 -6 32 -82 71 -168 39
-86 73 -163 76 -169 4 -9 -8 -13 -41 -13 -25 0 -46 4 -46 10 0 5 -8 28 -17 49
-19 44 -45 54 -107 44 -32 -5 -37 -10 -52 -56 -10 -31 -23 -51 -35 -54 -17 -5
-19 -16 -19 -107 1 -91 2 -99 15 -82 8 11 15 24 15 29 0 21 44 107 54 107 15
0 100 -196 91 -210 -13 -21 -36 -9 -51 25 -12 30 -19 35 -47 35 -28 0 -35 -6
-55 -42 -22 -43 -22 -46 -22 -458 l1 -415 41 -20 c86 -42 103 -149 34 -212
-20 -18 -45 -33 -56 -33 -15 0 -20 -7 -20 -25 0 -18 5 -25 19 -25 11 0 23 -5
27 -11 4 -8 9 -8 17 0 15 15 64 14 71 -1 5 -10 7 -10 12 0 9 19 173 17 180 -3
4 -8 10 -15 15 -15 5 0 9 7 9 15 0 8 7 15 15 15 8 0 15 -6 15 -13 0 -20 -31
-107 -38 -108 -98 -11 -158 -1 -123 21 9 5 8 10 -4 20 -8 7 -15 21 -15 31 0
11 -4 19 -10 19 -5 0 -10 -13 -10 -29 0 -36 -19 -51 -27 -22 -4 15 -13 21 -32
20 -23 -2 -24 -2 -3 -6 12 -2 22 -9 22 -14 0 -17 -32 -23 -61 -12 -20 8 -29 8
-32 0 -7 -21 -27 4 -27 34 0 16 -4 29 -10 29 -7 0 -10 -232 -10 -675 0 -471 3
-675 11 -675 6 0 19 5 30 10 17 10 19 22 19 115 l0 105 39 0 39 0 7 -84 c13
-152 -22 -216 -115 -216 l-30 0 0 -439 c0 -366 2 -440 14 -444 8 -3 41 -26 75
-52 55 -42 61 -50 61 -83 0 -117 -47 -262 -111 -349 l-39 -53 4 -492 c6 -612
6 -492 0 -1225 l-5 -623 51 0 c43 0 56 -5 87 -33 31 -29 37 -41 41 -88 4 -48
1 -59 -22 -86 -32 -38 -75 -56 -121 -51 -32 4 -35 2 -35 -23 0 -27 25 -59 32
-40 1 6 17 10 33 10 17 0 50 0 74 1 24 0 49 -4 56 -10 8 -7 15 -7 19 -1 3 5
42 10 87 10 73 1 81 -1 86 -19 7 -26 19 -26 26 0 3 11 11 20 17 20 14 0 8 -46
-13 -89 -12 -25 -57 -43 -57 -22 0 6 5 11 10 11 14 0 12 37 -3 63 -11 20 -12
18 -17 -28 -5 -46 -7 -50 -34 -53 -16 -2 -33 1 -39 7 -8 8 -6 11 8 11 16 0 17
2 3 18 -9 9 -18 25 -19 35 -6 31 -24 24 -27 -10 -4 -37 -21 -44 -29 -13 -3 11
-12 20 -21 20 -12 0 -13 -3 -4 -12 7 -7 12 -16 12 -20 0 -13 -55 -9 -68 4 -9
9 -12 9 -12 0 0 -7 -6 -12 -14 -12 -9 0 -16 12 -18 33 -2 17 -7 32 -13 32 -5
0 -11 -15 -13 -32 -4 -37 -21 -44 -29 -13 -3 11 -10 20 -15 20 -5 0 -6 -9 -3
-20 4 -11 2 -20 -4 -20 -8 0 -11 -154 -11 -505 0 -442 2 -505 15 -505 12 0 15
-13 15 -60 l0 -60 45 0 45 0 0 60 0 60 40 0 40 0 0 -60 c0 -57 1 -60 24 -60
21 0 25 5 28 37 5 54 42 78 125 78 60 0 67 -2 94 -33 31 -35 36 -51 17 -53
-53 -6 -70 -3 -85 13 -21 23 -66 24 -61 2 7 -37 77 -44 441 -44 l347 0 0 64
c0 60 1 64 25 69 14 2 40 1 58 -2 29 -6 32 -10 32 -43 0 -20 6 -42 12 -49 7
-7 13 -19 13 -26 0 -7 5 -13 10 -13 6 0 10 28 10 65 l0 65 50 0 c39 0 51 -4
60 -20 6 -11 8 -25 4 -31 -8 -14 27 -79 43 -79 17 0 16 3 -4 66 -9 30 -14 57
-10 60 16 16 37 -10 53 -65 9 -34 20 -61 24 -61 4 0 12 19 19 42 21 70 31 89
40 84 5 -3 0 -31 -10 -62 -11 -32 -19 -59 -19 -61 0 -1 11 -3 25 -3 14 0 25 6
25 13 0 7 7 37 16 66 13 44 18 52 37 49 17 -2 27 -17 43 -63 l21 -60 1352 -3
1351 -2 0 47 c0 27 -4 106 -9 178 -6 72 -13 240 -16 375 -11 414 36 1517 85
2000 5 52 16 219 25 370 9 151 26 399 37 550 25 321 27 630 4 795 -48 356 -58
408 -81 445 -26 41 -70 80 -90 80 -7 0 -18 7 -25 15 -11 13 -8 15 22 15 47 0
62 15 93 90 28 71 59 214 51 236 -3 8 -3 28 1 44 5 28 7 29 19 13 7 -10 14
-14 14 -9 0 5 6 4 13 -2 7 -6 41 -13 75 -16 60 -5 61 -4 76 24 10 21 11 30 3
30 -19 0 68 52 110 66 13 4 14 7 5 13 -9 6 -2 18 27 43 22 19 38 38 34 41 -3
4 6 16 20 28 15 11 27 26 27 33 0 6 26 26 57 43 38 19 57 36 57 47 -2 18 18
16 63 -6 24 -12 93 -2 93 13 0 6 4 8 9 4 5 -3 12 -1 16 5 8 14 65 13 65 -1 0
-8 4 -8 14 0 11 9 15 9 19 -1 3 -9 13 -4 30 16 22 26 35 51 85 165 9 21 13 52
10 82 -3 27 -2 49 1 49 3 0 29 -18 56 -40 28 -22 73 -57 100 -79 135 -105 188
-152 243 -216 66 -77 102 -108 208 -177 71 -47 115 -92 150 -158 16 -30 20
-64 24 -244 l5 -209 57 -13 c32 -8 75 -22 96 -33 43 -22 47 -34 43 -146 -3
-97 11 -199 32 -227 11 -14 17 -31 13 -36 -3 -5 -2 -43 3 -83 8 -61 6 -91 -14
-188 -13 -64 -40 -161 -60 -216 -126 -344 -130 -361 -155 -685 -36 -451 -46
-1737 -16 -2007 8 -76 18 -167 22 -203 3 -36 8 -69 11 -73 4 -7 -32 -121 -62
-192 -31 -75 -35 -87 -35 -100 0 -23 18 -18 47 15 69 78 114 3 127 -213 5 -86
6 -88 53 -148 60 -76 88 -129 104 -196 l12 -53 894 0 c647 0 893 3 893 11 0
11 75 8 193 -7 31 -4 47 -2 47 5 0 14 77 15 85 1 8 -13 95 -13 95 0 0 14 77
13 86 -1 4 -8 27 -9 68 -4 33 4 86 7 116 6 30 -1 180 -4 333 -7 l277 -5 0
1315 c0 1167 -2 1316 -15 1316 -9 0 -27 25 -43 58 l-27 57 -56 3 c-62 3 -71
-3 -92 -63 -15 -44 -40 -66 -57 -49 -7 7 13 64 67 188 91 206 99 213 143 106
14 -36 38 -90 52 -120 l26 -55 1 730 c0 635 -2 727 -14 704 -12 -22 -23 -27
-76 -32 -33 -4 -65 -4 -70 -1 -17 10 -9 43 15 61 13 11 25 28 27 38 5 26 47
46 87 42 l32 -3 0 2027 0 2028 -22 3 c-15 2 -27 17 -42 53 -23 58 -30 65 -65
60 -14 -1 -40 -3 -57 -4 -29 -1 -33 -6 -50 -53 -16 -45 -23 -54 -47 -56 -15
-2 -27 1 -27 6 0 5 22 56 49 113 26 57 61 137 77 176 45 113 61 109 115 -27
75 -186 68 -225 69 414 l0 568 -112 -6 c-62 -3 -261 -9 -443 -12 -181 -4 -340
-8 -353 -9 -13 -1 -26 4 -29 11 -4 12 -63 14 -322 14 l-316 0 -19 -34 c-23
-44 -86 -109 -136 -142 l-39 -26 -43 25 c-48 28 -114 95 -143 145 l-19 32
-454 0 c-421 0 -456 -1 -495 -19 -23 -10 -62 -21 -87 -25 -41 -5 -43 -5 -26 9
11 8 27 13 35 10 9 -2 27 3 41 11 23 13 14 14 -105 12 -94 -1 -135 -6 -147
-16 -9 -8 -25 -11 -36 -8 -11 4 -24 0 -32 -9 -15 -18 -30 -11 -30 16 0 10 -3
19 -7 19 -14 0 -46 -65 -44 -87 3 -27 -29 -48 -86 -57 -48 -7 -48 -7 -31 28 9
21 8 29 -5 43 -8 10 -20 30 -26 46 l-11 27 -325 0 -326 0 -21 -47 c-11 -27
-25 -51 -31 -54 -5 -4 -161 -10 -346 -13 -185 -4 -364 -9 -398 -12 -70 -6 -76
1 -49 54 7 15 17 37 20 50 l7 22 -299 0 -299 0 -11 -38 c-24 -79 -129 -214
-191 -247 -27 -13 -31 -12 -73 14 -71 45 -147 144 -179 234 l-13 37 -356 -4
c-195 -2 -364 -5 -375 -7 -11 -2 -31 0 -45 5 -19 5 -21 5 -10 -3 13 -10 13
-12 0 -21 -23 -15 -37 -12 -53 10 -13 19 -14 19 -36 -11 -25 -34 -41 -30 -42
9 -1 29 -3 24 -13 -20 -10 -42 -46 -39 -47 5 l-2 32 -6 -35 c-5 -30 -10 -35
-33 -35 -16 -1 -33 -6 -40 -13 -18 -18 -38 -15 -38 6 0 13 -6 10 -25 -13 l-25
-30 -6 23 -7 24 -22 -28 c-18 -23 -25 -26 -37 -17 -11 10 -16 8 -26 -8 -19
-30 -43 -7 -36 34 l5 32 -20 -39 c-11 -21 -25 -44 -31 -50 -5 -7 -7 -15 -4
-19 10 -10 -6 -45 -24 -52 -9 -4 -34 -11 -56 -15 l-38 -8 6 30 c4 22 0 39 -17
62 -17 24 -22 44 -21 94 l0 62 -301 0 c-173 0 -305 -4 -310 -9 -6 -5 -28 -11
-50 -14 l-40 -4 43 -1 c23 -1 42 -6 42 -11 0 -5 -15 -42 -34 -84 l-34 -75
-289 -6 c-158 -3 -336 -8 -395 -10 -88 -3 -108 -1 -108 10 0 23 60 148 75 156
7 5 11 17 8 28 -5 19 -14 20 -309 20 l-303 0 -11 -42z m6450 -18 c0 -5 -3 -10
-7 -11 -5 0 -25 -2 -45 -5 -47 -6 -49 2 -5 15 44 13 57 13 57 1z m-139 -36
c-19 -8 -37 -12 -40 -9 -9 10 22 25 49 24 23 0 22 -1 -9 -15z m2790 -811 c69
-36 92 -75 93 -157 1 -70 -26 -129 -75 -161 -16 -11 -29 -22 -29 -25 0 -3 23
-19 50 -35 55 -32 59 -39 31 -55 -32 -17 -49 -12 -106 30 -33 24 -65 40 -82
40 -73 0 -148 42 -178 101 -20 37 -19 132 0 174 51 106 183 145 296 88z m-921
-23 c0 -6 -12 -15 -27 -21 -16 -5 -41 -16 -58 -24 -16 -8 -160 -71 -320 -141
-288 -125 -500 -218 -750 -329 -176 -78 -264 -105 -348 -105 -80 0 -123 16
-160 59 -28 34 -49 94 -43 126 2 11 7 38 10 59 11 56 55 139 124 231 55 75
102 126 102 112 0 -4 -12 -41 -26 -84 -51 -151 3 -243 143 -243 55 0 60 1 678
178 193 55 418 119 500 142 83 23 155 43 160 45 6 2 11 4 13 4 1 1 2 -4 2 -9z
m-2425 -55 c36 -35 35 -95 -2 -130 -15 -14 -33 -25 -40 -25 -21 0 -16 -12 46
-94 33 -44 58 -83 56 -86 -4 -6 -83 -5 -90 2 -2 1 -27 39 -57 83 l-53 80 -3
-88 -3 -88 -36 3 -37 3 1 180 c1 99 2 181 2 183 1 1 44 2 96 2 88 0 98 -2 120
-25z m-385 -92 c24 -60 56 -135 72 -167 37 -79 36 -86 -11 -86 -38 0 -40 2
-55 48 -14 42 -41 166 -60 275 -12 67 9 39 54 -70z m-67 75 c3 -13 8 -48 11
-78 l6 -55 -16 34 c-15 34 -15 34 -30 12 -18 -26 -38 -17 -30 13 10 41 36 96
45 96 5 0 11 -10 14 -22z m-1833 -37 c0 -5 -12 -13 -27 -19 -22 -7 -543 -239
-738 -328 -263 -119 -473 -209 -537 -229 -138 -44 -245 -27 -301 47 -52 67
-45 165 20 289 35 69 153 220 165 213 4 -3 -2 -25 -13 -50 -12 -25 -23 -69
-26 -98 -6 -61 10 -99 59 -141 31 -26 36 -27 118 -22 67 3 140 21 350 82 146
42 319 92 385 111 100 28 534 151 543 153 1 1 2 -3 2 -8z m-2739 -110 c21 -52
55 -129 75 -173 21 -43 35 -80 33 -82 -2 -2 -19 -6 -37 -9 -31 -6 -33 -5 -57
47 -26 57 -47 69 -105 61 -14 -2 -30 -4 -36 -4 -6 -1 -18 -26 -28 -56 -14 -47
-21 -55 -42 -55 -13 0 -24 4 -24 9 0 5 26 71 59 148 32 76 64 155 71 176 9 30
16 37 32 35 16 -2 30 -26 59 -97z m383 74 c37 -34 36 -91 -2 -128 -15 -15 -33
-27 -40 -27 -19 0 -16 -6 48 -91 33 -44 60 -82 60 -84 0 -3 -20 -5 -44 -5 -44
0 -45 1 -90 69 -72 108 -78 110 -75 15 l2 -79 -36 -3 -36 -3 -3 176 c-2 97 -1
179 1 181 2 2 46 4 96 4 84 0 94 -2 119 -25z m-594 -5 c0 -17 -7 -20 -51 -20
l-51 0 3 -157 3 -158 -37 -3 -37 -3 0 155 c0 118 -3 156 -12 157 -7 1 -29 0
-49 -1 -39 -1 -55 11 -45 35 4 12 32 15 141 15 128 0 135 -1 135 -20z m4815
-120 c3 -5 -1 -10 -10 -10 -9 0 -13 5 -10 10 3 6 8 10 10 10 2 0 7 -4 10 -10z
m4041 -157 c10 -27 30 -73 45 -103 29 -60 29 -70 -5 -70 -16 0 -27 10 -39 35
-14 29 -22 35 -47 35 -26 0 -33 -6 -46 -35 -8 -19 -21 -35 -29 -35 -21 0 -19
8 21 96 20 44 40 89 45 102 14 36 36 26 55 -25z m142 -60 c-3 -103 -4 -108
-25 -111 -23 -3 -23 -2 -23 107 l0 111 25 0 26 0 -3 -107z m-3880 -34 c-21
-35 -35 -72 -38 -104 -7 -67 -33 -70 -41 -5 -3 25 -19 70 -37 101 -18 31 -32
59 -32 62 0 4 11 7 25 7 19 0 29 -9 42 -37 24 -50 39 -51 60 -6 20 43 34 56
46 44 5 -5 -7 -33 -25 -62z m170 47 c3 -15 0 -17 -14 -11 -43 17 -53 16 -64
-4 -10 -19 -7 -23 21 -39 76 -40 94 -87 49 -127 -28 -25 -83 -30 -104 -10 -22
22 -5 45 18 26 23 -19 60 -10 64 16 3 17 -6 27 -38 43 -59 30 -69 69 -31 113
21 25 94 20 99 -7z m-339 -87 c40 -92 45 -131 15 -111 -32 21 -92 212 -67 212
5 0 28 -45 52 -101z m-4439 19 c0 -6 -13 -35 -30 -65 -21 -37 -30 -66 -30 -98
0 -41 -2 -45 -25 -45 -23 0 -25 4 -25 45 0 32 -8 58 -30 93 -37 60 -37 72 -5
72 14 0 25 -3 25 -7 0 -5 11 -26 24 -47 l24 -40 26 52 c25 49 46 67 46 40z
m124 6 c31 -12 17 -31 -21 -30 -53 1 -58 -29 -9 -49 69 -29 82 -96 25 -129
-47 -28 -109 -7 -95 30 5 14 8 14 22 -1 25 -24 59 -16 59 15 0 18 -9 29 -33
41 -38 18 -52 35 -52 67 0 45 55 75 104 56z m-771 -35 c22 -27 22 -32 -8 -67
l-24 -29 29 -34 c36 -42 38 -59 6 -59 -16 0 -32 13 -52 43 l-29 42 -3 -42 c-3
-38 -6 -43 -28 -43 -24 0 -24 0 -24 104 l0 105 28 4 c45 8 86 -2 105 -24z m93
-37 c12 -34 24 -65 27 -68 3 -3 13 21 23 53 19 64 39 93 53 78 5 -6 16 -35 26
-65 10 -30 21 -59 25 -63 4 -5 16 22 26 59 17 58 35 86 49 72 7 -7 -56 -191
-71 -208 -18 -19 -28 -7 -49 60 -10 30 -21 59 -25 63 -4 5 -16 -22 -26 -59
-17 -59 -35 -86 -50 -72 -11 12 -73 201 -68 210 15 24 40 0 60 -60z m362 -30
c23 -54 42 -101 42 -106 0 -19 -46 2 -58 27 -11 22 -20 27 -47 27 -30 0 -37
-5 -49 -35 -15 -35 -36 -47 -36 -22 0 8 15 49 34 93 18 43 36 87 39 97 13 36
34 14 75 -81z m-638 -18 c0 -100 -1 -105 -20 -102 -19 3 -21 12 -26 106 l-5
102 26 0 25 0 0 -106z m4587 81 c-4 -8 -1 -17 4 -21 6 -3 9 -19 6 -33 -4 -19
0 -32 12 -43 16 -14 22 -13 55 3 26 13 44 15 59 9 17 -7 18 -9 5 -9 -16 -1
-16 -3 2 -21 11 -11 20 -29 20 -40 0 -13 -7 -20 -20 -20 -11 0 -20 -4 -20 -10
0 -5 6 -10 14 -10 7 0 21 -11 30 -25 20 -30 20 -35 1 -35 -8 0 -15 -4 -15 -10
0 -5 -7 -10 -15 -10 -8 0 -15 3 -15 8 0 16 -42 34 -53 23 -8 -8 -5 -11 11 -11
19 0 22 -5 22 -39 0 -61 5 -67 55 -63 25 2 45 8 45 13 0 15 20 10 51 -12 37
-26 39 -59 4 -59 -17 0 -25 -6 -25 -17 0 -16 -11 -18 -95 -18 -52 0 -95 3 -95
7 0 16 -53 7 -77 -12 -16 -12 -41 -20 -64 -20 -22 0 -39 -4 -39 -8 0 -28 -165
-73 -186 -52 -6 6 -38 13 -72 16 -34 4 -62 10 -62 14 0 7 -72 4 -140 -6 -48
-7 -60 -8 -128 -5 -35 1 -45 5 -49 22 -5 17 -11 20 -44 15 -30 -4 -39 -2 -39
9 0 8 5 15 10 15 14 0 12 27 -2 33 -7 3 -3 6 10 6 13 1 20 5 17 11 -4 6 -10 8
-15 5 -18 -11 -48 15 -55 47 -4 17 -16 46 -26 64 -13 24 -15 34 -6 38 9 5 9 7
0 12 -23 10 -15 63 13 89 15 14 31 25 36 25 6 0 48 19 95 42 111 55 193 63
281 27 96 -40 216 -26 266 30 12 13 26 19 37 16 9 -3 20 -2 23 3 6 9 52 8 77
-2 8 -4 31 0 50 8 43 19 52 20 46 1z m-192 -702 c5 -10 9 -31 11 -48 1 -16 6
-56 10 -87 5 -50 4 -58 -10 -58 -17 0 -23 -44 -7 -54 5 -3 12 -26 16 -51 3
-26 13 -49 21 -52 21 -8 17 -20 -18 -53 -28 -26 -40 -30 -83 -28 -59 2 -133
-10 -141 -23 -9 -16 -84 -11 -91 7 -7 18 25 94 40 94 6 0 8 3 5 6 -6 5 -127
-56 -155 -78 -7 -5 -17 -7 -22 -3 -6 3 -8 0 -5 -9 3 -8 -3 -19 -15 -25 -11 -6
-22 -19 -26 -30 -7 -24 -78 -71 -107 -71 -13 0 -34 12 -47 25 -13 14 -29 25
-35 25 -7 0 -19 23 -26 50 -7 28 -19 50 -26 50 -20 0 -24 73 -5 88 12 9 16 30
16 75 0 34 5 71 12 82 9 15 8 22 -5 31 -20 14 -16 19 18 27 21 5 29 0 48 -27
19 -27 34 -36 91 -49 85 -21 104 -21 168 -2 63 19 86 42 92 96 1 6 41 17 87
23 12 1 39 21 61 44 34 36 46 42 80 42 29 0 43 -5 48 -17z m352 -69 c-3 -3
-12 -4 -19 -1 -8 3 -5 6 6 6 11 1 17 -2 13 -5z m-1325 -54 c10 -8 18 -23 18
-34 0 -16 -5 -14 -30 13 -17 17 -37 31 -46 31 -14 0 -14 3 -4 15 13 16 13 16
62 -25z m363 20 c-3 -5 -10 -10 -16 -10 -5 0 -9 5 -9 10 0 6 7 10 16 10 8 0
12 -4 9 -10z m223 3 c-10 -2 -28 -2 -40 0 -13 2 -5 4 17 4 22 1 32 -1 23 -4z
m614 -35 c46 -23 97 -41 113 -41 39 0 154 32 180 49 39 28 48 19 42 -42 -3
-30 -11 -62 -17 -70 -7 -7 -10 -20 -7 -29 4 -8 0 -21 -8 -29 -8 -8 -15 -24
-15 -36 0 -20 1 -20 16 -5 18 18 29 13 21 -9 -3 -8 -16 -16 -29 -18 -17 -2
-22 -9 -21 -26 2 -19 -6 -27 -29 -23 -4 0 -16 -11 -26 -24 -23 -30 -29 -31
-34 -8 -2 10 -10 18 -18 19 -33 1 -76 26 -92 51 -9 15 -47 46 -85 69 -41 25
-66 48 -64 56 8 26 3 59 -12 76 -21 24 -27 82 -8 82 5 0 47 -19 93 -42z m4103
2 c23 -11 52 -31 65 -45 26 -27 23 -29 -45 -39 -22 -3 -58 -19 -81 -35 l-42
-29 -36 26 c-25 17 -54 27 -91 30 -65 5 -70 19 -22 56 77 59 176 73 252 36z
m-2189 -69 c-3 -5 -72 -37 -154 -71 -81 -35 -165 -71 -187 -81 -49 -22 -422
-185 -565 -246 -163 -70 -209 -84 -282 -85 -67 -1 -118 18 -118 43 0 7 10 5
25 -5 69 -46 135 4 135 102 0 20 4 42 8 48 4 6 39 13 77 16 39 3 108 17 155
31 47 14 184 53 305 87 291 81 299 83 455 129 153 44 153 44 146 32z m-3106
-96 c10 -12 10 -21 1 -41 -6 -14 -11 -37 -11 -51 0 -29 46 -132 65 -148 16
-13 26 -55 14 -55 -5 0 -9 -9 -9 -21 0 -15 5 -19 15 -15 22 8 19 -20 -6 -45
-30 -30 -70 -22 -82 16 -18 62 -17 77 4 72 13 -3 22 0 26 10 6 15 -15 35 -28
27 -4 -2 -10 5 -14 16 -5 15 -15 20 -41 20 -132 0 -202 164 -109 257 32 32 75
45 75 22 0 -6 -10 -19 -21 -28 -26 -21 -43 -110 -28 -149 15 -39 49 -72 75
-72 21 0 22 3 18 64 -2 36 0 67 5 71 5 3 13 36 17 73 7 62 8 64 14 30 4 -20
13 -44 20 -53z m4463 59 c73 -35 100 -128 55 -194 -63 -92 -191 -91 -248 2
-25 41 -25 71 -1 125 33 71 121 102 194 67z m232 -64 l50 -75 3 55 c4 89 8
100 42 100 l30 0 0 -130 0 -130 -42 0 c-43 0 -44 1 -93 78 l-50 77 -5 -75 -5
-75 -32 -3 -33 -3 -1 63 c-2 106 3 183 12 188 4 3 23 6 41 5 30 0 38 -7 83
-75z m-7582 59 c39 -10 121 -75 112 -88 -2 -4 -23 -8 -45 -9 -43 -2 -88 -21
-109 -46 -11 -13 -18 -11 -59 15 -32 20 -59 29 -89 29 -53 0 -57 18 -10 54 69
53 126 66 200 45z m7021 3 c3 -5 -13 -34 -35 -65 l-40 -57 40 -58 c23 -32 41
-61 41 -65 0 -4 -15 -7 -34 -7 -26 0 -41 7 -59 30 -25 29 -47 39 -47 21 0 -4
-11 -20 -25 -35 -21 -23 -32 -26 -84 -26 -50 0 -62 3 -71 20 -9 17 -21 20 -75
20 -55 0 -65 -3 -70 -20 -5 -15 -15 -20 -41 -20 -19 0 -34 3 -34 8 1 4 29 61
63 127 54 105 65 120 87 120 22 0 32 -14 80 -107 30 -58 58 -109 61 -113 7 -6
79 89 79 104 0 4 -16 29 -35 54 -19 25 -35 51 -35 56 0 6 17 11 38 11 31 0 41
-5 52 -25 18 -33 31 -32 58 5 16 21 31 30 52 30 16 0 31 -4 34 -8z m101 -122
l0 -125 -32 -3 -33 -3 0 131 0 131 33 -3 32 -3 0 -125z m849 79 c25 -22 46
-46 46 -53 0 -21 -97 -106 -120 -106 -27 0 -42 40 -41 108 2 102 38 118 115
51z m326 22 c14 -26 13 -117 -1 -144 -26 -48 -49 -43 -115 24 l-49 50 47 45
c53 50 99 59 118 25z m-3443 -79 c-5 -43 -30 -82 -52 -82 -7 0 -15 -7 -19 -15
-10 -27 -36 -17 -36 13 0 15 -5 33 -12 40 -8 8 -8 15 2 26 7 9 16 13 21 11 9
-6 49 16 49 27 0 4 5 19 11 35 10 27 11 28 26 8 10 -13 13 -34 10 -63z m-3199
-19 c3 -45 -6 -59 -73 -111 -33 -25 -37 -18 39 -67 20 -14 34 -33 40 -57 14
-57 5 -68 -59 -68 -52 0 -55 1 -55 25 0 17 -12 33 -46 56 -47 32 -47 32 -78
14 -49 -28 -66 -46 -66 -70 0 -26 -25 -34 -83 -27 -35 4 -37 6 -37 39 0 47 12
66 65 99 25 16 45 32 45 36 0 3 -20 18 -45 32 -52 31 -65 51 -65 100 l0 36 60
0 c57 0 60 -1 60 -25 0 -19 11 -33 46 -55 l47 -29 43 30 c30 21 44 37 44 53 0
33 8 37 65 34 l50 -3 3 -42z m460 1 l3 -41 -92 -6 c-51 -4 -119 -7 -151 -7
-49 0 -59 -3 -56 -16 3 -13 25 -16 148 -17 l145 -2 3 -37 3 -38 -113 -2 c-62
-1 -129 -2 -148 -2 -25 -1 -36 -6 -38 -18 -3 -16 11 -18 145 -20 l148 -3 0
-45 0 -45 -181 -3 -182 -2 -26 31 c-25 29 -26 36 -26 147 1 173 1 172 240 169
l175 -2 3 -41z m-944 13 c22 -22 24 -35 31 -166 5 -90 4 -146 -2 -152 -6 -6
-32 -9 -59 -7 l-49 3 -5 40 -5 40 -102 3 -103 3 0 -46 0 -46 -57 3 -58 3 -3
147 c-3 146 -2 147 23 172 26 26 27 26 196 26 165 0 171 -1 193 -23z m-1699
-76 l50 -73 3 76 3 76 29 0 30 0 1 -77 c1 -43 2 -98 3 -123 l1 -45 -40 -3
c-40 -2 -40 -2 -90 75 l-50 77 -5 -79 c-5 -78 -6 -80 -29 -77 -14 1 -26 3 -27
5 -6 5 -11 237 -6 242 4 3 22 5 42 3 31 -3 40 -11 85 -77z m372 14 l48 -44
-57 -56 c-31 -30 -61 -55 -67 -55 -18 0 -41 57 -41 104 0 107 38 124 117 51z
m298 35 c13 -22 17 -109 5 -144 -16 -50 -40 -47 -103 13 l-52 50 45 45 c43 45
90 61 105 36z m7966 -8 c-5 -10 -7 -23 -3 -29 14 -22 78 -53 109 -53 46 0 48
-15 8 -46 -73 -56 -159 -68 -235 -33 -45 20 -80 46 -80 59 0 4 17 11 37 15 51
9 82 27 122 69 37 39 58 47 42 18z m-3721 -22 c0 -5 -4 -10 -10 -10 -5 0 -10
5 -10 10 0 6 5 10 10 10 6 0 10 -4 10 -10z m-833 -113 c1 -43 -3 -68 -14 -82
-11 -14 -17 -16 -20 -7 -3 6 -16 12 -29 12 -35 0 -40 24 -13 67 55 93 73 95
76 10z m1242 17 c-14 -17 -30 -9 -23 11 3 7 12 11 20 8 11 -4 12 -9 3 -19z
m-4828 -3 c-8 -14 -6 -22 7 -34 23 -21 86 -47 113 -47 30 0 19 -20 -29 -54
-71 -50 -174 -46 -249 11 -40 29 -42 43 -7 43 37 0 86 25 124 65 37 38 57 46
41 16z m7265 -51 c6 -6 23 -5 48 2 29 9 42 9 57 0 14 -9 24 -9 44 0 20 9 31 9
45 0 11 -6 22 -8 25 -3 3 5 46 10 95 10 75 1 92 -2 97 -16 6 -14 7 -14 19 2 7
10 20 15 28 12 13 -5 13 -12 -1 -54 -9 -26 -20 -53 -25 -59 -9 -13 -148 -18
-148 -5 0 4 5 12 10 17 8 8 6 15 -5 24 -8 7 -15 22 -15 33 0 28 -17 10 -22
-23 -3 -24 -5 -25 -85 -26 l-83 -1 0 35 c0 40 -16 34 -22 -8 -3 -27 -38 -42
-38 -16 0 10 -8 16 -22 15 -17 -1 -19 -2 -5 -6 24 -6 21 -20 -5 -26 -29 -8
-68 18 -68 45 0 42 50 74 76 48z m-3276 -120 c0 -5 -8 -10 -19 -10 -10 0 -34
-6 -52 -14 -35 -14 -242 -19 -234 -5 8 12 68 20 149 20 44 0 87 4 95 9 21 13
61 12 61 0z m-30 -158 c0 -16 -41 -52 -59 -52 -10 0 -26 -9 -36 -20 -22 -24
-37 -26 -28 -4 5 14 -3 15 -61 12 -67 -3 -80 3 -48 21 16 10 15 11 -3 9 -11
-1 -31 0 -45 0 -24 2 -24 2 -5 15 12 8 57 14 110 16 49 1 92 4 94 7 8 8 81 4
81 -4z m-381 -39 c38 -22 39 -33 6 -33 -15 0 -25 -5 -24 -12 6 -45 -1 -58 -31
-58 -27 0 -30 3 -30 29 0 17 -4 32 -9 35 -5 4 -4 17 2 31 14 30 43 32 86 8z
m524 -153 c10 0 17 -8 17 -20 0 -11 -7 -20 -15 -20 -19 0 -55 -35 -55 -54 0
-16 -48 -9 -88 13 -20 11 -22 10 -22 -17 0 -27 -15 -52 -32 -52 -4 0 -8 7 -8
15 0 8 -4 15 -10 15 -5 0 -10 -4 -10 -10 0 -5 -7 -7 -15 -4 -8 4 -22 1 -29 -5
-11 -10 -17 -8 -25 6 -8 13 -10 14 -11 4 0 -12 -3 -12 -12 -3 -17 17 -45 15
-52 -3 -5 -14 -7 -14 -23 0 -10 8 -21 14 -25 13 -4 -2 -15 7 -23 20 -15 20
-18 21 -38 7 -12 -8 -25 -15 -29 -15 -13 0 -9 50 5 51 9 0 9 2 -1 6 -6 2 -9 9
-6 14 3 6 12 5 21 -2 10 -9 20 -10 31 -3 14 8 99 9 147 3 19 -3 117 11 128 18
7 4 21 6 32 5 11 -2 29 4 40 13 13 10 32 14 55 10 19 -2 43 -5 53 -5z m2428
-505 c4 -3 10 -1 14 5 3 5 24 10 46 10 l40 0 -3 -77 c-2 -62 -6 -78 -19 -81
-11 -2 -19 6 -23 24 -6 22 -9 25 -16 13 -6 -9 -5 -15 1 -18 6 -2 -4 -18 -22
-37 -28 -29 -30 -34 -15 -40 9 -4 32 -4 50 -1 54 9 57 1 54 -114 l-3 -104 -50
-25 c-99 -49 -235 -35 -312 34 -48 42 -73 98 -73 169 0 125 74 218 197 246 37
8 118 5 134 -4z m-4261 -106 c0 -79 0 -80 -24 -77 -23 3 -76 -34 -76 -54 0 -4
25 -8 55 -8 l55 0 0 -58 c0 -59 0 -59 -37 -75 -99 -42 -251 -97 -270 -97 -25
0 -77 57 -98 107 -24 56 -19 145 10 202 47 94 129 137 245 129 38 -3 70 -1 70
3 0 5 16 9 35 9 l35 0 0 -81z m-1870 22 c0 -5 -5 -11 -10 -13 -6 -2 -12 -20
-13 -41 -4 -52 -21 -51 -25 1 -2 23 -7 42 -13 42 -5 0 -9 5 -9 10 0 6 16 10
35 10 19 0 35 -4 35 -9z m150 -61 c0 -41 -4 -60 -12 -60 -9 0 -12 17 -10 60 5
78 22 78 22 0z m112 16 c-2 -20 2 -36 8 -36 5 0 10 5 10 10 0 6 10 15 23 20
17 7 18 9 5 9 -10 1 -18 6 -18 12 0 6 12 9 28 7 23 -3 27 -8 30 -41 l3 -38
-53 3 c-52 3 -53 4 -58 38 -7 42 -2 62 14 57 6 -2 10 -20 8 -41z m-204 -18 c3
-36 2 -38 -27 -38 -24 0 -31 4 -31 20 0 10 8 24 18 29 16 10 16 10 -1 11 -10
0 -15 5 -12 11 4 5 17 9 28 7 17 -2 23 -11 25 -40z m48 23 c-10 -10 -16 -26
-14 -34 2 -9 -1 -17 -7 -19 -12 -3 -19 37 -11 58 3 8 15 14 27 14 21 0 21 -1
5 -19z m122 -2 c2 -10 -6 -19 -20 -24 l-23 -8 23 -4 c26 -5 20 -23 -7 -23 -27
0 -44 26 -37 56 5 20 12 25 34 22 15 -2 28 -10 30 -19z m2674 -41 c-9 -9 -12
-7 -12 12 0 19 3 21 12 12 9 -9 9 -15 0 -24z m128 -28 c0 -5 -11 -10 -25 -10
-14 0 -25 5 -25 10 0 6 11 10 25 10 14 0 25 -4 25 -10z m4397 -96 c2 -49 5
-99 8 -111 6 -27 37 -38 65 -23 18 10 20 20 20 115 l0 104 35 7 c61 11 65 5
65 -93 0 -111 -12 -155 -52 -188 -29 -25 -38 -27 -101 -23 -63 3 -72 7 -98 36
-28 32 -29 35 -29 147 l0 114 33 4 c17 2 37 3 42 2 6 -1 11 -41 12 -91z m450
86 c25 -9 71 -65 61 -75 -1 -2 -24 -6 -50 -10 -41 -6 -48 -5 -58 15 -8 15 -19
20 -38 18 -51 -6 -30 -30 43 -49 104 -27 135 -71 99 -140 -20 -39 -68 -59
-139 -59 -67 0 -109 20 -130 60 -20 40 -13 50 36 50 30 0 46 -6 62 -25 17 -18
28 -23 50 -18 44 9 36 40 -15 53 -67 18 -111 43 -128 73 -13 24 -13 30 0 55
30 53 130 78 207 52z m-4910 -15 c8 -23 -2 -28 -27 -15 -18 10 -20 14 -9 21
20 13 29 11 36 -6z m4309 -18 c31 -36 30 -68 -1 -106 l-26 -30 31 -54 c16 -29
30 -59 30 -65 0 -8 -18 -12 -48 -12 l-48 0 -27 55 c-36 74 -57 73 -57 -1 l0
-55 -47 3 -48 3 -2 120 c-1 66 1 133 4 148 l6 29 104 -4 c100 -3 106 -4 129
-31z m-7244 -8 c16 -9 19 -17 14 -41 -4 -20 -1 -35 9 -45 8 -8 15 -28 15 -43
0 -41 -35 -62 -97 -58 l-48 3 -3 84 c-2 46 -1 90 2 98 7 16 79 18 108 2z m168
-4 c7 -8 10 -24 7 -36 -3 -12 1 -32 9 -45 22 -33 14 -76 -16 -91 -21 -11 -108
-19 -111 -10 -4 16 -9 173 -5 183 8 20 100 19 116 -1z m67 3 c6 -7 16 -34 23
-60 7 -27 16 -48 20 -48 4 0 14 27 23 60 11 39 22 60 32 60 20 0 19 -10 -9
-105 -24 -84 -46 -110 -70 -85 -12 13 -66 162 -66 183 0 12 37 8 47 -5z m235
-73 c34 -98 34 -105 3 -105 -15 0 -25 6 -25 14 0 8 -7 17 -16 20 -22 9 -64 -4
-64 -19 0 -7 -7 -15 -15 -19 -11 -4 -15 1 -15 17 0 18 25 110 45 165 3 8 16
12 32 10 23 -3 30 -12 55 -83z m-1261 29 c29 -14 52 -51 42 -66 -8 -14 -80 -8
-93 7 -14 17 -56 20 -65 5 -7 -11 16 -21 84 -40 80 -21 114 -83 75 -138 -51
-74 -213 -68 -254 8 -18 34 -5 50 40 50 27 0 43 -5 46 -15 15 -39 84 -42 84
-5 0 14 -11 22 -42 30 -105 25 -148 73 -117 128 8 15 26 32 39 39 35 18 125
16 161 -3z m725 -199 c9 -14 20 -25 25 -25 5 0 15 11 21 25 6 14 18 25 25 25
8 0 13 -3 11 -7 -2 -5 -12 -24 -22 -45 -19 -36 -19 -37 3 -71 11 -19 21 -37
21 -41 0 -9 -30 -8 -30 2 0 4 -7 16 -15 27 -15 18 -16 18 -45 -15 -24 -29 -29
-32 -29 -15 0 11 6 29 14 39 8 11 15 29 15 41 0 12 -7 30 -15 41 -8 10 -15 25
-15 32 0 20 18 14 36 -13z m494 10 c0 -8 -4 -15 -10 -15 -5 0 -10 7 -10 15 0
8 5 15 10 15 6 0 10 -7 10 -15z m2748 -12 c3 -19 8 -21 33 -16 18 3 29 1 29
-6 0 -15 -74 -14 -103 1 -12 6 -28 14 -36 18 -33 15 -21 28 26 26 41 -1 48 -4
51 -23z m-3052 -38 c22 -33 13 -50 -27 -53 -38 -3 -44 -6 -34 -22 4 -7 19 -10
36 -6 38 7 40 -19 3 -28 -40 -10 -74 20 -74 68 0 61 65 89 96 41z m126 12 c4
-7 8 -36 8 -64 0 -41 -4 -53 -15 -53 -11 0 -15 12 -15 51 0 47 -2 50 -22 47
-20 -3 -23 -9 -24 -47 0 -25 -6 -47 -12 -49 -8 -2 -12 16 -12 60 l0 64 42 1
c24 1 46 -3 50 -10z m122 -9 c26 -37 20 -48 -25 -48 -33 0 -40 -3 -37 -17 3
-13 13 -18 36 -17 21 1 32 -3 32 -12 0 -20 -59 -18 -82 3 -22 20 -24 76 -2 97
22 23 60 20 78 -6z m56 -43 c0 -37 -4 -65 -10 -65 -6 0 -10 28 -10 65 0 37 4
65 10 65 6 0 10 -28 10 -65z m120 54 c0 -6 -11 -25 -25 -43 -14 -18 -25 -38
-25 -44 0 -7 11 -12 25 -12 14 0 25 -4 25 -10 0 -5 -20 -10 -45 -10 -53 0 -56
9 -20 62 14 20 25 39 25 42 0 4 -11 6 -25 6 -14 0 -25 5 -25 10 0 6 20 10 45
10 25 0 45 -5 45 -11z m98 -1 c5 -7 13 -23 16 -35 7 -21 4 -23 -33 -23 -23 0
-41 -4 -41 -9 0 -17 26 -30 49 -24 18 4 22 2 19 -8 -7 -21 -57 -23 -79 -3 -23
21 -25 76 -3 98 19 19 58 21 72 4z m5249 -10 c7 -6 19 -5 31 3 16 10 24 10 44
-3 22 -15 25 -15 35 0 16 26 69 4 65 -27 -1 -12 2 -29 6 -38 9 -15 15 -4 36
60 9 29 38 16 51 -22 17 -51 38 -53 33 -5 -3 34 0 39 20 42 13 2 32 -4 42 -13
16 -14 18 -14 23 0 9 21 67 21 67 -1 0 -10 -6 -14 -15 -10 -22 8 -14 -37 8
-46 28 -12 10 -28 -30 -28 -28 0 -34 3 -29 15 5 14 4 14 -16 0 -32 -22 -114
-20 -123 3 -6 16 -7 16 -19 0 -17 -23 -131 -24 -122 -2 7 19 -1 17 -24 -6 -28
-28 -80 -7 -80 31 0 11 -7 19 -16 19 -13 0 -15 -7 -10 -30 l6 -30 -50 0 c-38
0 -50 4 -50 15 0 8 -4 15 -10 15 -5 0 -10 -6 -10 -14 0 -17 -74 -27 -107 -15
-26 9 -32 56 -11 77 16 16 81 16 75 0 -2 -7 -14 -12 -26 -11 -25 3 -39 -23
-22 -40 8 -8 11 -7 11 6 0 23 37 22 43 0 3 -14 6 -12 15 10 7 16 9 33 6 39 -4
6 5 8 22 6 21 -2 30 -11 39 -38 13 -38 28 -45 34 -15 1 10 -4 22 -13 27 -32
18 -15 31 44 34 8 1 20 -3 27 -8z m-4550 -44 c-30 -16 -44 -14 -32 5 3 6 18
11 33 11 l27 -1 -28 -15z m1569 -130 c-5 -13 -10 -14 -18 -6 -6 6 -8 18 -4 28
5 13 10 14 18 6 6 -6 8 -18 4 -28z m84 14 c0 -20 -4 -21 -37 -12 -34 9 -29 33
7 32 22 -1 30 -6 30 -20z m2194 -294 c4 -9 4 -19 2 -21 -8 -8 -26 8 -26 23 0
19 16 18 24 -2z m532 -312 c-4 -3 -11 0 -16 8 -15 24 -11 33 6 15 9 -9 13 -19
10 -23z m824 -142 c48 -34 145 -28 201 12 14 10 29 3 88 -41 70 -52 71 -53 71
-99 0 -67 -35 -202 -69 -269 -36 -72 -89 -134 -148 -175 l-46 -31 -34 18 c-51
28 -144 133 -176 198 -35 72 -67 195 -67 258 0 47 1 48 68 98 37 27 71 50 75
50 5 1 22 -8 37 -19z m-3435 -50 c3 -5 1 -10 -4 -10 -6 0 -11 5 -11 10 0 6 2
10 4 10 3 0 8 -4 11 -10z m5 -54 c0 -11 -19 -15 -25 -6 -3 5 1 10 9 10 9 0 16
-2 16 -4z m4580 -14 c0 -19 -26 -62 -41 -67 -9 -3 -24 -23 -34 -45 -15 -33
-23 -40 -47 -40 -28 0 -28 0 -13 30 8 16 15 38 15 48 0 27 65 82 95 82 14 0
25 -4 25 -8z m80 3 c0 -2 -17 -38 -37 -80 -30 -61 -42 -75 -60 -75 -13 0 -23
4 -23 9 0 12 50 124 62 139 10 11 58 18 58 7z m407 -15 c-4 -17 0 -20 29 -20
41 0 45 -20 14 -80 -16 -31 -26 -40 -46 -40 -22 0 -25 4 -20 20 3 11 9 29 12
40 11 36 -15 21 -36 -20 -16 -30 -26 -40 -45 -40 -14 0 -25 5 -25 10 0 6 16
42 35 80 30 60 39 70 61 70 21 0 25 -4 21 -20z m-5070 -20 c1 -11 -4 -20 -13
-20 -16 0 -16 2 -8 24 8 22 19 20 21 -4z m4803 -21 c4 -18 8 -20 14 -10 5 7
28 22 52 32 47 21 89 18 98 -8 10 -25 -5 -35 -42 -29 -37 6 -62 -6 -62 -30 0
-11 10 -13 41 -8 53 9 50 -12 -4 -39 -46 -23 -84 -16 -97 18 -12 31 -17 31
-41 0 -40 -50 -129 -41 -129 13 0 78 153 132 170 61z m-7766 7 c-1 -11 7 -16
27 -16 39 0 44 -17 19 -73 -17 -38 -26 -47 -45 -47 -29 0 -29 0 -11 45 22 52
-7 47 -34 -5 -13 -26 -27 -40 -40 -40 -11 0 -20 4 -20 10 0 13 48 120 61 136
14 17 44 10 43 -10z m-454 11 c0 -13 -33 -67 -41 -67 -5 0 -17 -17 -28 -39
-18 -35 -51 -57 -65 -44 -3 3 1 21 9 40 8 20 15 42 15 50 0 22 52 62 83 63 15
0 27 -2 27 -3z m68 -5 c-51 -124 -62 -142 -85 -142 -29 0 -29 5 7 84 25 57 33
66 55 66 15 0 25 -4 23 -8z m612 -37 c0 -8 -10 -35 -22 -60 -20 -41 -25 -45
-58 -45 -19 0 -44 0 -54 0 -10 -1 -23 3 -28 8 -15 15 0 50 23 57 13 5 18 12
14 24 -3 12 2 21 17 29 50 25 108 18 108 -13z m-482 -11 l3 -31 34 34 c30 30
40 34 77 31 37 -3 43 -7 46 -27 4 -22 1 -24 -34 -18 -39 7 -64 -5 -64 -29 0
-11 9 -13 40 -8 45 7 51 -3 16 -28 -43 -31 -103 -28 -112 7 -4 15 -13 25 -25
25 -12 0 -16 -5 -13 -15 8 -20 -57 -48 -90 -39 -33 8 -39 29 -20 70 20 43 58
64 104 61 31 -2 35 -5 38 -33z m3217 16 c-3 -5 -10 -10 -16 -10 -5 0 -9 5 -9
10 0 6 7 10 16 10 8 0 12 -4 9 -10z m-5 -74 c0 -11 -19 -15 -25 -6 -3 5 1 10
9 10 9 0 16 -2 16 -4z m-3 -32 c-3 -3 -12 -4 -19 -1 -8 3 -5 6 6 6 11 1 17 -2
13 -5z m5263 -7 c0 -7 -15 -42 -32 -77 l-33 -65 -417 -3 c-230 -1 -418 2 -418
6 0 5 16 41 35 80 l35 72 415 0 c330 0 415 -3 415 -13z m-8040 -27 c0 -16 -61
-134 -73 -142 -18 -11 -777 -10 -777 2 0 6 16 42 35 80 l35 70 390 0 c261 0
390 -3 390 -10z m2765 -40 c-4 -20 -1 -30 7 -30 8 0 9 -3 3 -8 -5 -4 -11 -20
-13 -37 -6 -70 -13 -95 -28 -95 -13 0 -15 8 -11 43 6 41 14 91 23 135 7 34 25
27 19 -8z m-20 -190 c-3 -5 -10 -10 -16 -10 -5 0 -9 5 -9 10 0 6 7 10 16 10 8
0 12 -4 9 -10z m-5 -24 c0 -11 -19 -15 -25 -6 -3 5 1 10 9 10 9 0 16 -2 16 -4z
m90 -106 c0 -5 -5 -10 -11 -10 -5 0 -7 5 -4 10 3 6 8 10 11 10 2 0 4 -4 4 -10z
m-833 -411 c36 -13 65 -44 108 -116 33 -55 46 -101 25 -88 -5 3 -10 -1 -10 -9
0 -25 -20 -19 -21 7 l-1 22 -6 -22 c-7 -20 -9 -21 -32 -7 l-25 15 25 -6 c21
-5 22 -4 8 5 -9 6 -15 17 -12 25 4 10 0 15 -11 15 -11 0 -15 -5 -11 -15 3 -10
-1 -15 -13 -15 -38 0 -81 13 -81 24 0 7 -13 25 -30 41 -38 36 -40 76 -5 110
26 27 49 31 92 14z m713 -69 c0 -5 -4 -10 -10 -10 -5 0 -10 5 -10 10 0 6 5 10
10 10 6 0 10 -4 10 -10z m-3969 -301 c10 -25 43 -102 73 -172 31 -69 56 -128
56 -131 0 -3 -16 -6 -36 -6 -33 0 -37 3 -60 55 l-24 56 -62 -3 -61 -3 -17 -50
c-12 -37 -22 -51 -38 -53 -13 -2 -22 2 -22 10 0 7 29 80 64 163 35 82 66 158
70 168 10 32 39 15 57 -34z m374 25 c0 -14 -9 -18 -45 -18 l-45 -1 0 -155 0
-155 -32 -3 c-22 -2 -33 1 -33 10 -1 7 -1 77 0 154 1 157 0 160 -66 148 -26
-5 -35 -2 -40 11 -4 9 -2 20 4 24 5 3 66 5 134 5 111 -2 123 -3 123 -20z m203
-39 c13 -33 46 -110 73 -172 27 -61 49 -114 49 -117 0 -3 -16 -6 -36 -6 -33 0
-37 3 -60 55 l-24 56 -62 -3 -61 -3 -20 -52 c-14 -38 -25 -53 -38 -53 -11 0
-19 6 -19 14 0 8 29 81 64 162 35 82 66 157 70 167 11 34 39 13 64 -48z m391
41 c27 -25 27 -29 -9 -68 l-29 -33 -1 28 c0 36 -33 67 -70 67 l-30 0 0 -65 0
-65 30 0 c33 0 35 -2 19 -31 -7 -14 -16 -18 -30 -14 -17 6 -19 1 -19 -42 0
-31 -7 -60 -20 -81 -37 -61 -45 -39 -48 138 -1 91 -1 169 2 176 3 7 35 11 94
10 73 -1 94 -4 111 -20z m7945 -20 c54 -41 76 -82 76 -142 0 -67 -21 -115 -66
-152 -41 -34 -39 -44 17 -72 42 -22 46 -29 27 -48 -21 -21 -47 -13 -106 33
-42 34 -66 45 -92 45 -69 1 -146 52 -169 113 -15 40 -14 123 3 155 20 38 68
81 102 92 16 5 61 8 100 7 61 -2 76 -6 108 -31z m-1135 -70 c-113 -45 -220
-90 -239 -99 -18 -10 -35 -16 -36 -14 -5 5 -8 76 -4 80 8 7 444 115 465 116
11 0 -73 -37 -186 -83z m-4610 -99 c46 6 75 -17 68 -55 -6 -29 1 -52 15 -52
19 0 98 -41 98 -51 0 -6 12 -26 27 -46 24 -31 31 -34 60 -30 18 3 45 15 60 26
14 12 35 21 47 21 11 0 55 9 96 20 104 27 149 26 223 -9 62 -29 75 -44 95
-106 11 -35 -3 -89 -17 -66 -7 11 -11 9 -20 -7 -7 -13 -25 -24 -49 -27 -20 -4
-51 -13 -69 -21 -17 -8 -38 -14 -47 -14 -11 0 -13 -5 -9 -17 7 -17 6 -17 -20
0 -52 34 -137 17 -176 -36 -7 -10 -20 -16 -28 -13 -8 3 -24 -1 -36 -9 -12 -8
-39 -15 -60 -15 -24 0 -49 -8 -65 -21 -18 -14 -38 -19 -67 -18 -30 2 -39 -1
-37 -12 8 -32 73 -40 104 -12 14 12 35 17 76 16 31 -1 59 3 63 8 3 6 37 15 75
21 38 5 132 26 209 46 135 34 180 41 192 28 13 -12 30 -102 24 -120 -5 -13
-20 -20 -52 -22 -24 -3 -45 -9 -47 -14 -2 -6 -22 -10 -45 -10 -45 0 -107 -15
-116 -27 -3 -5 -22 -16 -41 -27 -89 -47 -146 -80 -161 -92 -8 -8 -20 -14 -26
-14 -6 0 -13 -5 -15 -12 -5 -13 -61 -15 -121 -5 -21 3 -54 20 -74 36 -19 16
-42 27 -49 24 -9 -3 -14 2 -14 17 0 43 -18 60 -63 60 -23 0 -62 9 -86 20 -24
11 -49 20 -57 20 -8 0 -14 5 -14 12 0 6 -18 29 -40 50 -22 22 -40 46 -40 53 0
19 33 28 98 27 59 0 102 25 102 60 0 15 -9 18 -60 18 -33 0 -60 -4 -60 -10 0
-5 -18 -10 -39 -10 -40 0 -56 16 -45 45 4 8 3 23 0 32 -5 13 -9 14 -19 3 -9
-10 -9 -13 1 -17 6 -3 12 -9 12 -15 0 -6 -7 -8 -15 -4 -9 3 -15 0 -15 -9 0 -8
-4 -15 -10 -15 -17 0 -11 41 11 72 15 20 24 26 29 18 4 -7 10 6 14 29 4 30 11
41 24 41 12 0 13 3 5 8 -10 6 -9 15 3 37 8 16 21 33 27 37 7 4 9 8 5 8 -9 0
58 155 79 185 l18 24 13 -33 c13 -32 16 -33 51 -29z m-3222 -287 c19 -47 36
-94 37 -105 2 -32 -27 -23 -43 13 -13 28 -19 32 -52 32 -33 0 -38 -3 -44 -30
-4 -16 -13 -30 -21 -30 -20 0 -18 6 20 96 18 43 36 87 40 97 11 32 26 14 63
-73z m111 -18 c3 -97 2 -102 -18 -102 -19 0 -20 6 -20 98 0 54 3 102 7 106 20
19 28 -8 31 -102z m166 98 c21 -8 26 -16 26 -44 0 -24 -7 -39 -20 -49 -20 -14
-20 -15 10 -58 29 -44 28 -65 -2 -54 -9 4 -28 24 -43 46 -28 43 -45 45 -38 4
7 -35 -3 -54 -24 -49 -16 5 -18 16 -16 107 1 56 2 103 2 105 2 6 83 1 105 -8z
m104 -35 c40 -114 41 -114 66 -26 26 92 42 91 71 -6 10 -35 22 -63 26 -63 4 0
15 26 25 58 17 58 44 101 44 72 0 -8 -14 -56 -31 -107 -38 -113 -53 -118 -83
-25 -11 34 -23 62 -26 62 -4 0 -15 -26 -25 -57 -22 -66 -35 -87 -46 -76 -12
12 -76 202 -70 208 14 15 37 -4 49 -40z m363 -51 c44 -103 46 -114 20 -114
-11 0 -23 12 -31 30 -10 25 -18 30 -47 30 -29 0 -36 -5 -46 -30 -10 -26 -37
-43 -37 -22 0 19 86 202 94 199 5 -2 27 -43 47 -93z m65 81 c4 -8 3 -23 -1
-32 -6 -16 -8 -15 -25 7 -10 13 -16 28 -14 32 9 13 34 9 40 -7z m8442 -113
c23 -54 42 -101 42 -105 0 -4 -11 -7 -24 -7 -18 0 -27 8 -35 30 -9 26 -15 30
-49 30 -35 0 -41 -4 -52 -30 -7 -16 -19 -30 -26 -30 -18 0 -19 -4 21 89 45
106 53 121 68 121 7 0 31 -44 55 -98z m120 -9 l3 -103 -26 0 -25 0 0 106 c0
104 0 105 23 102 21 -3 22 -8 25 -105z m-5372 -300 c-10 -10 -19 5 -10 18 6
11 8 11 12 0 2 -7 1 -15 -2 -18z m-1045 -6 c18 0 35 5 37 11 5 15 42 16 42 2
0 -5 -4 -10 -10 -10 -5 0 -10 -4 -10 -10 0 -5 7 -10 16 -10 9 0 14 -7 12 -17
-2 -13 -13 -18 -36 -19 -22 -1 -38 -8 -48 -22 -8 -12 -24 -22 -35 -22 -11 0
-22 -7 -25 -15 -4 -8 -10 -12 -15 -9 -12 7 -12 64 0 64 5 0 8 16 7 35 -3 33
12 52 26 32 3 -6 21 -10 39 -10z m251 -94 c11 -10 27 -13 49 -8 l32 7 -29 -35
c-32 -41 -39 -39 -97 22 l-38 41 33 -6 c18 -4 41 -13 50 -21z m849 -2 c4 -38
-4 -97 -13 -108 -6 -7 -21 -13 -34 -13 -13 0 -24 -4 -24 -10 0 -5 -7 -10 -16
-10 -10 0 -14 5 -10 16 3 8 2 12 -4 9 -6 -3 -10 -13 -10 -22 0 -14 -2 -14 -19
1 -19 17 -21 17 -42 -3 -12 -11 -42 -23 -68 -26 -63 -8 -110 -30 -120 -57 -18
-46 -64 -78 -127 -88 -75 -13 -74 -13 -74 4 0 7 -9 16 -20 19 -16 4 -20 14
-20 45 l0 41 48 7 c45 6 122 32 132 43 18 21 76 50 140 71 41 14 77 28 78 33
8 17 170 77 189 70 7 -3 14 -13 14 -22z m3679 -71 c0 -5 -4 -10 -10 -10 -5 0
-10 5 -10 10 0 6 5 10 10 10 6 0 10 -4 10 -10z m17 -60 c1 -11 -1 -20 -6 -20
-10 0 -21 24 -21 48 0 23 23 -1 27 -28z m-4542 -21 c6 -4 29 -4 50 1 53 12 55
12 55 -4 0 -7 9 -16 21 -19 38 -10 9 -27 -47 -27 -52 0 -73 14 -36 23 11 3 7
5 -10 6 -15 0 -33 -6 -42 -14 -8 -9 -39 -23 -68 -32 -29 -9 -65 -26 -79 -36
-15 -11 -48 -22 -73 -24 -43 -5 -46 -4 -46 18 0 35 11 45 53 53 22 4 62 20 90
35 50 28 110 37 132 20z m780 -149 c9 -27 -8 -46 -53 -61 -20 -6 -44 -18 -52
-25 -16 -14 -121 -44 -153 -44 -14 0 -18 6 -15 27 2 23 14 33 73 61 56 27 77
33 108 28 33 -6 39 -4 44 14 7 26 40 26 48 0z m-680 -24 c40 -17 46 -36 11
-36 -26 0 -86 30 -86 43 0 12 38 8 75 -7z m-2619 -142 c44 -25 70 -51 61 -61
-4 -3 -22 -7 -41 -9 -32 -3 -68 -18 -106 -45 -12 -9 -24 -6 -52 14 -20 13 -59
27 -87 31 -45 6 -50 9 -40 24 15 24 78 64 114 73 45 10 105 0 151 -27z m8097
-35 c88 -45 103 -79 34 -79 -32 0 -56 -8 -87 -29 l-44 -29 -34 26 c-23 18 -50
27 -88 30 -34 3 -54 9 -54 17 0 14 57 61 92 75 43 17 136 11 181 -11z m-5250
-19 c3 -13 0 -20 -9 -20 -8 0 -23 9 -34 20 l-20 20 29 0 c20 0 30 -6 34 -20z
m4272 10 c3 -5 1 -10 -4 -10 -6 0 -11 5 -11 10 0 6 2 10 4 10 3 0 8 -4 11 -10z
m-7724 -41 c5 -8 25 -40 45 -71 19 -32 40 -58 45 -58 6 0 10 25 9 58 -2 82 -2
82 24 82 21 0 24 -5 30 -61 3 -34 6 -88 6 -120 l0 -59 -39 0 c-38 0 -41 2 -93
83 l-53 82 -3 -82 c-3 -80 -4 -83 -26 -83 -13 0 -26 6 -29 13 -11 28 -8 220 4
228 19 11 70 4 80 -12z m362 -20 c35 -18 77 -61 77 -80 0 -23 -87 -101 -108
-97 -34 7 -53 136 -26 179 7 12 31 11 57 -2z m337 -8 c13 -25 13 -112 0 -145
-14 -37 -35 -32 -92 23 l-51 48 19 25 c25 33 74 68 96 68 10 0 22 -9 28 -19z
m7173 0 c59 -23 98 -97 83 -157 -17 -65 -117 -119 -163 -89 -13 9 -23 24 -23
34 0 16 6 18 39 14 33 -5 44 -1 65 20 45 46 25 111 -40 131 -30 9 -77 -10 -70
-29 3 -8 1 -17 -3 -19 -7 -5 -31 57 -31 78 0 22 99 33 143 17z m241 -76 c27
-42 51 -73 55 -69 3 3 6 36 6 72 l0 67 30 0 30 0 0 -120 0 -120 -38 -3 c-36
-3 -38 -2 -85 72 -26 42 -53 76 -59 76 -9 0 -13 -22 -13 -76 l0 -75 -27 3 -28
3 -3 123 -3 122 44 0 c42 0 43 -1 91 -75z m392 3 l45 -41 -38 -39 c-44 -45
-84 -70 -100 -60 -18 11 -34 90 -27 130 9 50 11 52 45 52 21 0 43 -12 75 -42z
m314 16 c23 -61 3 -164 -32 -164 -10 0 -44 23 -74 52 l-54 51 22 25 c58 63
122 80 138 36z m-8297 -63 c-6 -25 52 -70 101 -78 20 -3 36 -9 36 -14 0 -14
-63 -56 -102 -68 -55 -18 -135 1 -184 43 l-38 33 47 7 c36 6 57 17 94 51 26
24 49 44 50 45 0 0 -1 -8 -4 -19z m8109 -63 c4 -27 70 -68 111 -68 35 0 34
-12 -3 -44 -77 -65 -203 -58 -279 15 l-24 23 53 12 c37 8 63 22 88 48 43 42
49 44 54 14z m-746 -139 c4 -8 9 -8 17 0 14 14 64 14 72 1 5 -7 11 -8 19 -1 6
5 48 9 93 8 68 -2 85 -5 96 -21 14 -19 15 -19 21 2 4 12 12 22 18 22 17 0 -11
-119 -29 -121 -90 -9 -161 1 -120 17 17 6 17 7 -2 20 -11 8 -21 23 -23 34 -5
33 -23 28 -26 -7 -4 -36 -32 -47 -32 -13 0 15 -7 20 -25 20 -14 0 -25 -4 -25
-10 0 -5 9 -10 20 -10 11 0 20 -5 20 -10 0 -6 -25 -9 -60 -8 -57 3 -59 4 -62
32 -4 44 -28 46 -28 2 0 -19 -4 -37 -9 -40 -10 -6 -30 63 -23 82 5 15 78 16
88 1z m24 -480 c0 -11 -4 -17 -10 -14 -5 3 -10 13 -10 21 0 8 5 14 10 14 6 0
10 -9 10 -21z m65 -356 c10 -54 20 -104 22 -110 3 -7 -2 -13 -11 -13 -12 0
-15 7 -12 25 3 14 1 25 -3 25 -5 0 -11 24 -14 53 -3 28 -9 67 -13 85 -4 19 -3
32 4 32 5 0 18 -44 27 -97z m-7072 -40 c-7 -2 -13 -22 -13 -43 0 -21 -4 -42
-10 -45 -6 -4 -10 11 -10 39 0 26 -5 46 -12 49 -7 3 3 5 22 5 19 0 29 -2 23
-5z m269 -55 c2 -21 1 -38 -3 -38 -9 0 -18 72 -11 85 7 11 9 3 14 -47z m-214
30 c7 -7 12 -23 12 -38 0 -19 -3 -22 -9 -10 -6 8 -7 18 -5 22 3 5 -2 11 -10
14 -17 6 -22 24 -8 24 4 0 13 -5 20 -12z m54 -5 c-6 -2 -10 -8 -7 -13 3 -4 1
-19 -4 -32 -9 -21 -10 -19 -10 15 -1 29 3 37 17 36 10 0 12 -3 4 -6z m114 -11
c1 -7 0 -8 -3 -2 -9 19 -28 10 -29 -14 -1 -18 4 -26 20 -30 17 -3 16 -4 -4 -3
-26 2 -37 25 -26 53 7 18 38 15 42 -4z m123 -19 c-2 -35 -2 -35 -6 -8 -3 16
-10 33 -16 37 -8 5 -6 8 6 8 13 0 17 -8 16 -37z m-189 -13 c0 -22 -4 -40 -9
-40 -8 0 -9 39 -2 73 4 22 11 2 11 -33z m-127 0 c3 -11 1 -20 -4 -20 -5 0 -9
2 -9 4 0 2 -3 11 -6 20 -3 9 -2 16 4 16 5 0 12 -9 15 -20z m287 -11 c0 -6 -4
-7 -10 -4 -5 3 -10 11 -10 16 0 6 5 7 10 4 6 -3 10 -11 10 -16z"/>
<path d="M8976 8659 c-56 -44 -74 -155 -37 -227 21 -41 55 -62 102 -62 76 0
119 57 119 160 0 100 -39 150 -116 150 -27 0 -51 -7 -68 -21z"/>
<path d="M5665 8598 c-4 -9 -5 -40 -3 -69 3 -53 3 -54 33 -51 37 4 65 35 65
72 0 33 -16 48 -58 56 -23 5 -33 2 -37 -8z"/>
<path d="M687 8398 c-10 -24 -17 -47 -17 -51 0 -4 17 -7 39 -7 l39 0 -12 33
c-25 69 -31 73 -49 25z"/>
<path d="M1027 8513 c-4 -3 -7 -33 -7 -65 0 -57 1 -58 28 -58 38 0 60 19 68
56 5 25 1 37 -15 53 -20 20 -61 28 -74 14z"/>
<path d="M9366 8194 c-8 -20 1 -34 20 -34 15 0 17 9 8 34 -8 20 -20 20 -28 0z"/>
<path d="M344 8076 c-7 -28 1 -46 20 -46 21 0 38 27 31 50 -9 28 -43 26 -51
-4z"/>
<path d="M812 8035 c-10 -22 -9 -25 8 -25 21 0 26 16 12 38 -6 9 -12 6 -20
-13z"/>
<path d="M4900 7696 c0 -9 5 -16 10 -16 6 0 10 4 10 9 0 6 -4 13 -10 16 -5 3
-10 -1 -10 -9z"/>
<path d="M3705 6770 c4 -6 11 -8 16 -5 14 9 11 15 -7 15 -8 0 -12 -5 -9 -10z"/>
<path d="M8020 7080 c-11 -11 -20 -33 -20 -50 0 -67 86 -95 136 -44 28 27 27
63 -3 97 -23 24 -87 23 -113 -3z"/>
<path d="M7410 7024 c-13 -34 -13 -34 15 -34 25 0 31 13 19 44 -9 24 -23 19
-34 -10z"/>
<path d="M1674 6971 c-2 -2 -4 -17 -4 -33 l0 -28 100 0 100 0 0 33 0 32 -96 0
c-53 0 -98 -2 -100 -4z"/>
<path d="M8340 6805 c0 -8 5 -15 10 -15 6 0 10 7 10 15 0 8 -4 15 -10 15 -5 0
-10 -7 -10 -15z"/>
<path d="M8400 6782 c0 -22 5 -32 16 -32 11 0 14 6 9 23 -12 38 -25 43 -25 9z"/>
<path d="M8218 6783 c7 -3 16 -2 19 1 4 3 -2 6 -13 5 -11 0 -14 -3 -6 -6z"/>
<path d="M4586 6275 c4 -8 10 -15 14 -15 5 0 15 -3 24 -6 27 -10 18 12 -9 24
-33 15 -36 15 -29 -3z"/>
<path d="M7143 5736 c-41 -34 -57 -92 -41 -142 16 -45 33 -54 42 -19 4 14 12
25 18 25 22 0 98 83 98 106 0 43 -10 54 -50 54 -26 0 -48 -8 -67 -24z m107 0
c0 -2 -15 -9 -32 -15 -30 -10 -31 -9 -14 4 18 14 46 20 46 11z m-60 -66 c0
-20 -25 -38 -36 -27 -8 7 15 47 26 47 6 0 10 -9 10 -20z"/>
<path d="M7164 5549 l-25 -26 29 -12 c16 -7 45 -11 63 -9 30 3 34 7 37 34 3
30 1 32 -38 36 -34 3 -45 -1 -66 -23z"/>
<path d="M7115 5509 c-4 -6 -5 -12 -2 -15 2 -3 7 2 10 11 7 17 1 20 -8 4z"/>
<path d="M2825 5710 c-36 -15 -64 -49 -71 -86 -7 -37 10 -114 25 -114 5 0 16
17 24 38 9 20 16 30 16 22 1 -25 91 72 91 98 0 15 -5 22 -12 19 -7 -2 -24 -7
-38 -11 -24 -7 -24 -6 -6 8 11 9 28 16 39 16 10 0 15 5 12 10 -7 12 -52 12
-80 0z m7 -105 c-7 -14 -10 -14 -20 -2 -9 10 -7 19 6 38 l17 24 3 -22 c2 -12
-1 -30 -6 -38z"/>
<path d="M2817 5512 c-18 -20 -19 -24 -7 -33 25 -15 59 -22 85 -15 19 5 25 13
25 35 0 26 -3 29 -40 33 -33 3 -45 -1 -63 -20z"/>
<path d="M8290 5564 c0 -23 3 -25 33 -22 24 2 33 8 35 26 3 19 -1 22 -32 22
-32 0 -36 -3 -36 -26z"/>
<path d="M1134 5587 c-11 -29 0 -122 15 -122 21 0 36 29 25 51 -4 11 -8 32 -9
48 0 31 -21 47 -31 23z"/>
<path d="M1297 5593 c-10 -9 -8 -121 2 -127 4 -3 17 1 27 9 16 11 17 18 8 43
-6 17 -9 42 -7 56 5 25 -13 37 -30 19z"/>
<path d="M1586 5548 c-9 -35 -8 -38 15 -38 15 0 19 4 15 16 -3 9 -6 22 -6 30
0 22 -17 16 -24 -8z"/>
<path d="M1250 5320 c0 -5 11 -10 25 -10 14 0 25 5 25 10 0 6 -11 10 -25 10
-14 0 -25 -4 -25 -10z"/>
<path d="M1507 5334 c-14 -14 -6 -24 19 -24 16 0 24 5 22 13 -5 14 -31 21 -41
11z"/>
<path d="M1787 5334 c-14 -14 -6 -24 19 -24 16 0 24 5 22 13 -5 14 -31 21 -41
11z"/>
<path d="M7123 5304 c-8 -21 13 -42 28 -27 13 13 5 43 -11 43 -6 0 -13 -7 -17
-16z"/>
<path d="M7410 5300 c0 -11 7 -20 15 -20 8 0 15 9 15 20 0 11 -7 20 -15 20 -8
0 -15 -9 -15 -20z"/>
<path d="M7649 4381 l-54 -37 2 -80 c2 -94 30 -181 88 -268 38 -57 124 -136
149 -136 19 0 78 49 117 97 75 93 124 235 117 338 -3 45 -7 51 -48 81 -52 38
-64 40 -116 18 -46 -19 -142 -14 -178 10 -23 14 -27 13 -77 -23z m61 -161 c0
-17 -4 -19 -26 -14 -23 6 -25 4 -22 -17 2 -20 8 -23 31 -21 31 3 33 -1 13 -21
-17 -16 -65 -11 -67 7 -2 20 3 71 8 79 2 4 17 7 34 7 22 0 29 -5 29 -20z m100
-2 c0 -13 7 -32 15 -42 8 -11 15 -23 15 -28 0 -13 -34 -9 -49 5 -11 10 -14 10
-18 0 -3 -7 -14 -13 -25 -13 -15 0 -18 4 -13 18 5 9 13 32 19 50 13 40 56 47
56 10z m120 -6 c0 -36 4 -40 36 -34 23 4 25 9 20 33 -5 26 -3 29 20 29 20 0
25 -4 20 -16 -3 -9 -6 -31 -6 -50 0 -31 -3 -34 -28 -34 -15 0 -34 6 -41 13
-11 10 -14 10 -18 0 -3 -7 -21 -13 -41 -13 l-37 0 0 50 0 50 38 0 c34 0 37 -2
37 -28z"/>
<path d="M9030 4250 c0 -5 5 -10 10 -10 6 0 10 5 10 10 0 6 -4 10 -10 10 -5 0
-10 -4 -10 -10z"/>
<path d="M9000 4200 c0 -5 7 -10 15 -10 8 0 15 5 15 10 0 6 -7 10 -15 10 -8 0
-15 -4 -15 -10z"/>
<path d="M1465 4170 c-3 -5 -2 -10 4 -10 5 0 13 5 16 10 3 6 2 10 -4 10 -5 0
-13 -4 -16 -10z"/>
<path d="M1020 4220 c-13 -8 -12 -10 3 -10 9 0 17 5 17 10 0 12 -1 12 -20 0z"/>
<path d="M990 4170 c0 -13 11 -13 30 0 12 8 11 10 -7 10 -13 0 -23 -4 -23 -10z"/>
<path d="M8752 4108 c-16 -20 -44 -89 -39 -95 3 -2 45 -5 94 -5 93 -2 139 12
129 38 -3 8 0 23 6 34 7 10 9 23 4 27 -4 4 -47 10 -95 11 -66 3 -90 0 -99 -10z
m122 -29 c-7 -12 -64 -12 -64 0 0 11 38 19 57 13 7 -2 10 -8 7 -13z m-9 -39
c-3 -5 -22 -10 -41 -10 -19 0 -34 5 -34 10 0 6 18 10 41 10 24 0 38 -4 34 -10z"/>
<path d="M9010 4088 c-41 -67 -12 -90 105 -83 78 5 99 15 121 61 34 70 -35 77
-74 7 -21 -38 -28 -43 -59 -43 -33 0 -35 1 -29 28 13 53 12 57 -16 60 -22 3
-32 -3 -48 -30z"/>
<path d="M9342 4111 c-71 -18 -67 -47 9 -57 27 -4 52 -10 54 -14 8 -13 -36
-19 -62 -9 -32 12 -73 12 -73 -1 0 -35 174 -35 205 0 21 23 8 32 -53 40 -65 8
-46 26 23 22 48 -3 58 -1 48 9 -15 15 -106 21 -151 10z"/>
<path d="M764 4082 c-12 -7 -44 -77 -44 -94 0 -16 184 -6 204 11 12 10 14 17
5 27 -9 11 -7 15 5 20 26 10 18 31 -15 38 -43 8 -141 7 -155 -2z m109 -27 c-3
-13 -53 -20 -53 -7 0 15 13 23 35 20 11 -2 19 -7 18 -13z m-10 -40 c1 -5 -13
-11 -30 -13 -31 -3 -42 6 -26 22 10 10 53 3 56 -9z"/>
<path d="M997 4055 c-32 -66 -22 -76 76 -74 85 1 108 10 134 48 32 47 30 61
-11 61 -28 0 -36 -5 -46 -31 -18 -42 -37 -59 -67 -59 -23 0 -25 3 -20 28 3 15
9 35 12 45 6 14 1 17 -27 17 -29 0 -37 -5 -51 -35z"/>
<path d="M1300 4083 c-8 -3 -21 -10 -28 -16 -19 -15 4 -37 38 -37 35 0 60 -9
60 -21 0 -6 -29 -7 -67 -4 -63 6 -67 5 -49 -9 13 -11 40 -16 80 -16 67 0 109
16 114 42 3 14 -7 19 -47 24 -28 4 -51 11 -51 16 0 6 23 7 56 2 46 -5 56 -4
52 7 -5 15 -127 24 -158 12z"/>
<path d="M186 2857 c-9 -23 -16 -46 -16 -50 0 -4 18 -7 40 -7 22 0 40 3 40 7
0 16 -33 93 -40 93 -4 0 -15 -19 -24 -43z"/>
<path d="M756 2860 c-22 -56 -21 -60 24 -60 22 0 40 3 40 7 0 16 -33 93 -40
93 -4 0 -15 -18 -24 -40z"/>
<path d="M8988 2954 c-83 -45 -81 -236 3 -279 61 -32 133 -12 161 45 38 76 15
209 -42 237 -33 17 -89 16 -122 -3z"/>
<path d="M3442 2668 c5 -13 78 -30 78 -18 0 15 -26 30 -53 30 -18 0 -27 -4
-25 -12z"/>
<path d="M3240 2410 c0 -5 5 -10 11 -10 5 0 7 5 4 10 -3 6 -8 10 -11 10 -2 0
-4 -4 -4 -10z"/>
<path d="M3436 2355 c-9 -25 -6 -43 4 -20 9 19 9 19 16 -3 8 -29 29 -23 29 9
0 29 -39 40 -49 14z"/>
<path d="M137 2510 c-7 -28 -1 -40 19 -40 18 0 18 21 1 45 -13 17 -14 17 -20
-5z"/>
<path d="M419 2568 c-12 -52 0 -79 28 -62 27 17 23 58 -4 62 -13 2 -23 2 -24
0z"/>
<path d="M881 2512 c-16 -30 -14 -42 9 -42 21 0 27 24 11 49 -7 11 -11 10 -20
-7z"/>
<path d="M9376 2484 c-10 -26 -7 -34 14 -34 11 0 20 4 20 9 0 17 -12 41 -20
41 -4 0 -11 -7 -14 -16z"/>
<path d="M4225 1970 c3 -5 8 -10 11 -10 2 0 4 5 4 10 0 6 -5 10 -11 10 -5 0
-7 -4 -4 -10z"/>
<path d="M8374 1136 c-4 -10 -2 -22 4 -28 8 -8 13 -7 18 6 4 10 2 22 -4 28 -8
8 -13 7 -18 -6z"/>
<path d="M8430 1102 c0 -31 4 -42 13 -40 18 7 20 40 3 63 -14 19 -15 17 -16
-23z"/>
<path d="M730 9586 c0 -8 -6 -17 -12 -19 -7 -3 1 -6 17 -6 24 -1 31 3 31 19 0
13 -7 20 -18 20 -10 0 -18 -6 -18 -14z"/>
<path d="M817 9580 c-16 -20 -16 -20 25 -20 40 0 41 0 23 20 -10 11 -21 20
-24 20 -4 0 -14 -9 -24 -20z"/>
<path d="M955 9579 l-30 -19 59 0 c58 0 59 0 41 20 -22 24 -31 24 -70 -1z"/>
<path d="M1110 9580 l-25 -20 38 0 c40 0 40 0 31 24 -8 20 -13 20 -44 -4z"/>
<path d="M1203 9586 c-13 -6 -23 -13 -23 -16 0 -3 37 -4 81 -2 75 3 80 5 65
20 -12 13 -18 14 -28 4 -14 -14 -58 -16 -58 -2 0 12 -8 11 -37 -4z"/>
<path d="M2110 9571 c0 -51 17 -81 45 -81 29 0 52 31 60 81 l5 34 -13 -34 c-7
-19 -21 -39 -29 -45 -23 -14 -48 9 -48 45 0 16 -4 29 -10 29 -5 0 -10 -13 -10
-29z"/>
<path d="M2322 9580 c0 -14 2 -19 5 -12 2 6 2 18 0 25 -3 6 -5 1 -5 -13z"/>
<path d="M2381 9584 c0 -11 3 -14 6 -6 3 7 2 16 -1 19 -3 4 -6 -2 -5 -13z"/>
<path d="M3597 9563 c40 -96 144 -213 189 -213 17 0 75 53 126 115 10 12 28
46 42 76 l24 56 -31 -1 c-18 -1 -36 -5 -40 -11 -6 -6 -10 -6 -14 3 -2 6 -11
12 -18 12 -7 0 -16 -6 -19 -12 -5 -10 -7 -10 -12 0 -3 6 -12 12 -19 12 -7 0
-16 -6 -18 -12 -4 -10 -6 -10 -6 0 -1 6 -7 12 -15 12 -8 0 -17 -6 -20 -12 -5
-10 -7 -10 -12 0 -4 8 -32 12 -89 12 l-84 0 16 -37z m33 17 c0 -5 -2 -10 -4
-10 -3 0 -8 5 -11 10 -3 6 -1 10 4 10 6 0 11 -4 11 -10z m50 6 c0 -3 -4 -8
-10 -11 -5 -3 -10 -1 -10 4 0 6 5 11 10 11 6 0 10 -2 10 -4z m-35 -35 c3 -5 1
-12 -5 -16 -5 -3 -10 1 -10 9 0 18 6 21 15 7z m50 -1 c3 -5 -1 -10 -10 -10 -9
0 -13 5 -10 10 3 6 8 10 10 10 2 0 7 -4 10 -10z m45 0 c0 -5 -2 -10 -4 -10 -3
0 -8 5 -11 10 -3 6 -1 10 4 10 6 0 11 -4 11 -10z m50 0 c0 -5 -4 -10 -10 -10
-5 0 -10 5 -10 10 0 6 5 10 10 10 6 0 10 -4 10 -10z m50 0 c0 -5 -4 -10 -10
-10 -5 0 -10 5 -10 10 0 6 5 10 10 10 6 0 10 -4 10 -10z m100 6 c0 -3 -4 -8
-10 -11 -5 -3 -10 -1 -10 4 0 6 5 11 10 11 6 0 10 -2 10 -4z m-170 -36 c0 -5
-4 -10 -10 -10 -5 0 -10 5 -10 10 0 6 5 10 10 10 6 0 10 -4 10 -10z m50 0 c0
-5 -4 -10 -10 -10 -5 0 -10 5 -10 10 0 6 5 10 10 10 6 0 10 -4 10 -10z m50 0
c0 -5 -4 -10 -10 -10 -5 0 -10 5 -10 10 0 6 5 10 10 10 6 0 10 -4 10 -10z m50
0 c0 -5 -5 -10 -11 -10 -5 0 -7 5 -4 10 3 6 8 10 11 10 2 0 4 -4 4 -10z m-250
-4 c0 -3 -4 -8 -10 -11 -5 -3 -10 -1 -10 4 0 6 5 11 10 11 6 0 10 -2 10 -4z
m47 -2 c-3 -3 -12 -4 -19 -1 -8 3 -5 6 6 6 11 1 17 -2 13 -5z m23 -24 c0 -5
-4 -10 -10 -10 -5 0 -10 5 -10 10 0 6 5 10 10 10 6 0 10 -4 10 -10z m110 0 c0
-5 -7 -10 -15 -10 -8 0 -15 -7 -15 -15 0 -8 -5 -15 -11 -15 -10 0 -5 13 14 38
11 14 27 16 27 2z m50 0 c0 -5 -4 -10 -10 -10 -5 0 -10 5 -10 10 0 6 5 10 10
10 6 0 10 -4 10 -10z m-210 -4 c0 -3 -4 -8 -10 -11 -5 -3 -10 -1 -10 4 0 6 5
11 10 11 6 0 10 -2 10 -4z m80 -20 c0 -3 -4 -8 -10 -11 -5 -3 -10 -1 -10 4 0
6 5 11 10 11 6 0 10 -2 10 -4z m110 -10 c0 -3 -4 -8 -10 -11 -5 -3 -10 -1 -10
4 0 6 5 11 10 11 6 0 10 -2 10 -4z m-80 -20 c0 -11 -19 -15 -25 -6 -3 5 1 10
9 10 9 0 16 -2 16 -4z m50 0 c0 -3 -4 -8 -10 -11 -5 -3 -10 -1 -10 4 0 6 5 11
10 11 6 0 10 -2 10 -4z m-110 -10 c0 -3 -4 -8 -10 -11 -5 -3 -10 -1 -10 4 0 6
5 11 10 11 6 0 10 -2 10 -4z m30 -26 c0 -5 -4 -10 -10 -10 -5 0 -10 5 -10 10
0 6 5 10 10 10 6 0 10 -4 10 -10z m50 6 c0 -3 -4 -8 -10 -11 -5 -3 -10 -1 -10
4 0 6 5 11 10 11 6 0 10 -2 10 -4z m-33 -38 c-3 -8 -6 -5 -6 6 -1 11 2 17 5
13 3 -3 4 -12 1 -19z"/>
<path d="M4640 9563 c-8 -21 -16 -41 -18 -45 -2 -5 31 -8 72 -8 89 0 152 20
142 46 -4 9 -1 23 5 30 9 11 6 14 -15 14 -15 0 -34 -7 -42 -15 -9 -8 -26 -15
-40 -15 -15 0 -24 6 -24 15 0 10 -10 15 -33 15 -29 0 -35 -5 -47 -37z m138
-15 c-3 -7 -21 -14 -41 -16 -28 -2 -37 1 -37 12 0 12 11 16 41 16 28 0 39 -4
37 -12z"/>
<path d="M4900 9569 c-18 -43 -4 -52 81 -51 85 1 122 14 138 48 15 34 15 34
-23 34 -28 0 -35 -4 -40 -25 -4 -15 -18 -30 -33 -36 -32 -12 -67 -2 -59 17 3
8 9 21 12 29 5 12 -2 15 -29 15 -29 0 -37 -5 -47 -31z"/>
<path d="M5190 9592 c0 -10 46 -22 86 -22 15 0 24 -6 24 -16 0 -14 -9 -15 -65
-9 -43 4 -65 3 -65 -4 0 -25 136 -25 183 0 24 13 21 36 -5 42 -54 13 -158 19
-158 9z"/>
<path d="M6163 9593 c9 -2 23 -2 30 0 6 3 -1 5 -18 5 -16 0 -22 -2 -12 -5z"/>
<path d="M7690 9570 c46 -64 112 -120 143 -120 20 0 147 121 147 139 0 15 -27
14 -34 -1 -5 -10 -7 -10 -12 0 -7 15 -31 16 -36 1 -3 -8 -11 -8 -27 2 -19 11
-25 11 -28 2 -3 -7 -11 -13 -18 -13 -7 0 -16 6 -19 13 -5 10 -7 10 -12 0 -7
-15 -34 -17 -34 -3 0 6 -21 10 -46 10 l-45 0 21 -30z m40 10 c0 -5 -4 -10 -10
-10 -5 0 -10 5 -10 10 0 6 5 10 10 10 6 0 10 -4 10 -10z m80 -20 c0 -5 -4 -10
-10 -10 -5 0 -10 5 -10 10 0 6 5 10 10 10 6 0 10 -4 10 -10z m65 0 c-3 -5 -10
-10 -16 -10 -5 0 -9 5 -9 10 0 6 7 10 16 10 8 0 12 -4 9 -10z m50 1 c3 -5 1
-12 -5 -16 -5 -3 -10 1 -10 9 0 18 6 21 15 7z m-175 -11 c0 -5 -4 -10 -10 -10
-5 0 -10 5 -10 10 0 6 5 10 10 10 6 0 10 -4 10 -10z m90 -9 c0 -12 -20 -25
-27 -18 -7 7 6 27 18 27 5 0 9 -4 9 -9z m55 -10 c-3 -6 -11 -11 -17 -11 -6 0
-6 6 2 15 14 17 26 13 15 -4z m-110 -1 c3 -5 -1 -10 -10 -10 -9 0 -13 5 -10
10 3 6 8 10 10 10 2 0 7 -4 10 -10z m25 -30 c0 -5 -4 -10 -10 -10 -5 0 -10 5
-10 10 0 6 5 10 10 10 6 0 10 -4 10 -10z m60 6 c0 -11 -19 -15 -25 -6 -3 5 1
10 9 10 9 0 16 -2 16 -4z m-30 -36 c0 -5 -4 -10 -9 -10 -6 0 -13 5 -16 10 -3
6 1 10 9 10 9 0 16 -4 16 -10z"/>
<path d="M1223 9525 c-54 -23 -44 -35 40 -50 63 -10 45 -29 -23 -22 -61 7 -93
-7 -45 -19 37 -9 143 2 160 16 25 21 18 40 -14 40 -16 0 -42 5 -58 11 -40 15
-13 27 50 22 38 -3 48 -2 37 6 -21 15 -109 13 -147 -4z"/>
<path d="M707 9522 c-23 -3 -32 -12 -48 -49 -10 -24 -19 -47 -19 -49 0 -9 137
-3 173 7 33 9 38 14 33 31 -3 14 1 26 12 35 15 11 15 14 2 22 -14 9 -85 11
-153 3z m93 -20 c0 -5 -3 -12 -7 -16 -4 -4 -8 -15 -8 -24 0 -12 -10 -18 -32
-20 -25 -2 -33 1 -33 12 0 10 9 16 23 17 16 1 18 2 5 6 -19 5 -23 15 -11 26 9
10 63 9 63 -1z"/>
<path d="M926 9508 c-8 -13 -17 -33 -20 -45 -6 -19 -2 -23 31 -32 48 -14 60
-14 123 0 44 9 53 16 70 49 11 22 20 42 20 45 0 3 -15 5 -32 5 -29 0 -35 -5
-50 -40 -18 -43 -57 -62 -83 -40 -13 11 -13 16 0 41 20 38 20 39 -15 39 -20 0
-34 -7 -44 -22z"/>
<path d="M9426 8567 c-9 -23 -16 -48 -16 -55 0 -13 66 -17 74 -4 6 10 -26 102
-35 102 -3 0 -14 -19 -23 -43z"/>
<path d="M107 8376 c-13 -37 -13 -45 -2 -50 14 -5 54 0 61 7 6 6 -28 87 -37
87 -4 0 -14 -20 -22 -44z"/>
<path d="M67 8033 c-12 -12 -7 -33 8 -33 17 0 19 9 7 28 -5 7 -11 9 -15 5z"/>
<path d="M0 6920 c0 -78 8 -85 44 -37 24 32 15 71 -21 95 l-23 14 0 -72z"/>
<path d="M236 6704 c-9 -22 -8 -24 9 -24 8 0 15 6 15 14 0 22 -17 28 -24 10z"/>
<path d="M291 6683 c-1 -32 3 -43 14 -43 18 0 18 16 0 55 l-13 30 -1 -42z"/>
<path d="M5280 5576 c0 -8 4 -17 9 -20 5 -4 7 3 4 14 -6 23 -13 26 -13 6z"/>
<path d="M6094 4575 c-9 -25 -23 -45 -30 -45 -8 0 -14 -4 -14 -10 0 -16 15
-12 40 10 28 24 42 17 34 -16 -8 -32 0 -30 41 8 l35 32 -32 33 c-17 18 -37 33
-44 33 -7 0 -20 -20 -30 -45z"/>
<path d="M5810 4491 c0 -6 5 -13 10 -16 6 -3 10 1 10 9 0 9 -4 16 -10 16 -5 0
-10 -4 -10 -9z"/>
<path d="M5865 4480 c3 -5 8 -10 11 -10 2 0 4 5 4 10 0 6 -5 10 -11 10 -5 0
-7 -4 -4 -10z"/>
<path d="M5930 4470 c0 -5 5 -10 11 -10 5 0 7 5 4 10 -3 6 -8 10 -11 10 -2 0
-4 -4 -4 -10z"/>
<path d="M5972 4422 c-14 -31 -10 -37 17 -22 24 12 26 23 8 38 -9 8 -15 4 -25
-16z"/>
<path d="M6040 4380 c0 -5 5 -10 11 -10 5 0 7 5 4 10 -3 6 -8 10 -11 10 -2 0
-4 -4 -4 -10z"/>
<path d="M5868 4373 c7 -3 16 -2 19 1 4 3 -2 6 -13 5 -11 0 -14 -3 -6 -6z"/>
<path d="M5990 4370 c19 -13 30 -13 30 0 0 6 -10 10 -22 10 -19 0 -20 -2 -8
-10z"/>
<path d="M0 4255 l0 -115 25 0 c24 0 25 2 19 35 -6 31 -4 35 16 35 20 0 21 -4
16 -47 -2 -27 -5 -52 -5 -57 -1 -5 -16 -6 -35 -3 l-34 5 -1 -90 c-1 -83 0 -90
14 -78 44 37 105 215 105 306 0 51 -1 53 -50 88 -28 20 -55 36 -60 36 -6 0
-10 -45 -10 -115z"/>
<path d="M5707 4350 c3 -11 9 -17 15 -14 5 3 4 12 -3 20 -16 19 -18 18 -12 -6z"/>
<path d="M6067 4343 c-4 -3 -7 -11 -7 -17 0 -6 5 -5 12 2 6 6 9 14 7 17 -3 3
-9 2 -12 -2z"/>
<path d="M5790 4331 c0 -6 5 -13 10 -16 6 -3 10 1 10 9 0 9 -4 16 -10 16 -5 0
-10 -4 -10 -9z"/>
<path d="M5941 4325 c-18 -8 -43 -15 -54 -15 -11 0 -18 -3 -14 -6 9 -10 71 4
93 21 24 18 18 18 -25 0z"/>
<path d="M6065 4300 c-3 -5 1 -10 9 -10 9 0 16 5 16 10 0 6 -4 10 -9 10 -6 0
-13 -4 -16 -10z"/>
<path d="M5940 4250 c-45 -24 -28 -24 25 0 22 10 33 19 25 19 -8 0 -31 -8 -50
-19z"/>
<path d="M5795 4250 c-3 -6 1 -7 9 -4 18 7 21 14 7 14 -6 0 -13 -4 -16 -10z"/>
<path d="M6085 4240 c-16 -7 -17 -9 -3 -9 9 -1 18 -9 20 -18 3 -13 6 -10 10
10 6 29 4 30 -27 17z"/>
<path d="M5960 4220 c-19 -11 -30 -19 -25 -19 6 0 26 8 45 19 19 11 31 19 25
19 -5 0 -26 -8 -45 -19z"/>
<path d="M5643 4223 c-15 -3 -23 -12 -23 -24 0 -20 8 -24 26 -11 8 5 29 46 21
41 -1 -1 -12 -4 -24 -6z"/>
<path d="M5810 4220 c-8 -5 -10 -10 -5 -10 6 0 17 5 25 10 8 5 11 10 5 10 -5
0 -17 -5 -25 -10z"/>
<path d="M5995 4200 c-37 -14 -119 -70 -104 -70 7 0 43 18 79 40 61 38 70 49
25 30z"/>
<path d="M5825 4190 c-3 -6 1 -7 9 -4 18 7 21 14 7 14 -6 0 -13 -4 -16 -10z"/>
<path d="M5860 4170 c-18 -12 -2 -12 25 0 13 6 15 9 5 9 -8 0 -22 -4 -30 -9z"/>
<path d="M6013 4167 c-19 -11 -15 -12 35 -13 31 -1 48 0 37 3 -11 3 -24 9 -29
14 -12 11 -16 11 -43 -4z"/>
<path d="M5796 4147 c3 -10 9 -15 12 -12 3 3 0 11 -7 18 -10 9 -11 8 -5 -6z"/>
<path d="M5673 4132 c-8 -5 -9 -13 -3 -22 7 -12 12 -12 22 -2 14 14 -1 35 -19
24z"/>
<path d="M5946 4125 c-11 -8 -16 -15 -10 -15 5 0 18 7 28 15 11 8 16 15 10 15
-5 0 -18 -7 -28 -15z"/>
<path d="M6206 4081 l-30 -36 34 32 c19 18 32 34 29 36 -2 2 -17 -12 -33 -32z"/>
<path d="M5726 4077 c-15 -16 -16 -21 -5 -28 20 -13 29 -11 29 6 0 18 26 20
36 3 4 -6 -1 -17 -10 -24 -17 -12 -16 -13 3 -23 28 -16 31 -14 31 15 0 21 4
25 20 21 11 -3 18 -1 14 4 -3 5 -12 9 -21 9 -9 0 -30 8 -47 19 -30 18 -31 18
-50 -2z"/>
<path d="M5976 4074 c-21 -12 -25 -19 -17 -27 6 -6 11 -22 11 -34 0 -21 3 -22
20 -13 19 10 19 12 5 27 -12 12 -13 19 -5 27 8 8 15 6 24 -6 12 -16 14 -16 36
-1 17 12 19 18 9 23 -32 17 -56 18 -83 4z"/>
<path d="M6232 4045 c0 -16 2 -22 5 -12 2 9 2 23 0 30 -3 6 -5 -1 -5 -18z"/>
<path d="M5826 4001 c-3 -5 1 -11 9 -15 9 -3 15 0 15 9 0 16 -16 20 -24 6z"/>
<path d="M5886 4001 c-4 -7 -5 -15 -2 -18 9 -9 19 4 14 18 -4 11 -6 11 -12 0z"/>
<path d="M5920 3996 c0 -9 5 -16 10 -16 6 0 10 4 10 9 0 6 -4 13 -10 16 -5 3
-10 -1 -10 -9z"/>
<path d="M5905 3874 c14 -11 16 -18 8 -21 -7 -3 -13 -10 -13 -17 0 -14 50 -11
85 4 11 5 37 14 57 20 21 6 41 16 45 22 4 8 0 9 -13 3 -49 -21 -128 -45 -132
-40 -3 3 -2 5 3 5 4 0 -4 9 -18 20 -14 11 -29 20 -34 20 -4 0 1 -8 12 -16z"/>
<path d="M6044 3824 c-18 -14 -18 -15 4 -4 12 6 22 13 22 15 0 8 -5 6 -26 -11z"/>
<path d="M5965 3800 c-28 -7 -28 -8 -5 -9 14 0 32 4 40 9 17 11 8 11 -35 0z"/>
<path d="M5900 3791 c0 -5 7 -11 15 -15 8 -3 15 -1 15 3 0 5 -7 11 -15 15 -8
3 -15 1 -15 -3z"/>
<path d="M9427 2839 c-9 -23 -14 -46 -11 -50 6 -11 71 -12 77 -1 6 10 -30 92
-41 92 -5 0 -16 -19 -25 -41z"/>
<path d="M22 1469 c-19 -7 -22 -15 -22 -68 0 -56 2 -61 24 -67 77 -19 130 49
88 114 -12 18 -64 30 -90 21z"/>
<path d="M300 1180 c0 -11 5 -20 10 -20 6 0 10 9 10 20 0 11 -4 20 -10 20 -5
0 -10 -9 -10 -20z"/>
<path d="M1170 56 c0 -56 0 -56 30 -56 30 0 42 21 20 35 -5 3 -9 20 -7 38 2
26 -2 33 -20 35 -22 3 -23 0 -23 -52z"/>
<path d="M1337 103 c-4 -3 -7 -28 -7 -55 0 -47 1 -48 30 -48 33 0 40 19 15 40
-12 10 -12 16 -4 26 21 25 -11 60 -34 37z"/>
<path d="M1616 49 c-7 -39 -2 -49 24 -42 21 6 23 14 14 51 -9 32 -30 27 -38
-9z"/>
</g>
</svg>
